<?xml version="1.0" encoding="UTF-8" standalone="no"?>
<!-- Uploaded to: SVG Repo, www.svgrepo.com, Generator: SVG Repo Mixer Tools -->

<svg
   width="805.80243"
   height="692.75757"
   viewBox="0 0 257.85678 221.68242"
   version="1.1"
   id="svg1284"
   sodipodi:docname="bulb-creativity-idea-svgrepo-com.svg"
   inkscape:version="1.2.2 (732a01da63, 2022-12-09)"
   xmlns:inkscape="http://www.inkscape.org/namespaces/inkscape"
   xmlns:sodipodi="http://sodipodi.sourceforge.net/DTD/sodipodi-0.dtd"
   xmlns="http://www.w3.org/2000/svg"
   xmlns:svg="http://www.w3.org/2000/svg">
  <defs
     id="defs1288" />
  <sodipodi:namedview
     id="namedview1286"
     pagecolor="#ffffff"
     bordercolor="#000000"
     borderopacity="0.25"
     inkscape:showpageshadow="2"
     inkscape:pageopacity="0.0"
     inkscape:pagecheckerboard="0"
     inkscape:deskcolor="#d1d1d1"
     showgrid="false"
     inkscape:zoom="0.523125"
     inkscape:cx="-9.557945"
     inkscape:cy="141.45759"
     inkscape:window-width="1920"
     inkscape:window-height="1017"
     inkscape:window-x="1912"
     inkscape:window-y="-8"
     inkscape:window-maximized="1"
     inkscape:current-layer="svg1284" />
  <path
     d="m 162.1304,151.08242 c -0.48,-2 -8.3,-3.2 -32.68,-3.2 -23,0 -28.16,4.79 -28.79,5.94 -1.290002,2.34 -0.24,31.5 2.92,37.59 2.85,5.5 7.39,6.67 10.47,7.22 0.52,3.28 2.43,9.25 4.87,12.28 3.34,4.16 18.68,3.22 22.37,0.06 3,-2.59 6.52,-9.68 7,-12.92 3.49,-0.57 8.58,-1.85 10.65,-7.26 2.03,-5.28 4.12,-35.85 3.19,-39.71 z"
     fill="#191919"
     id="path1236" />
  <path
     d="m 129.0004,221.68242 c -1.36,0 -2.58,-0.06 -3.57,-0.15 -5.92,-0.55 -10.21,-2.44 -12.76,-5.61 a 34.16,34.16 0 0 1 -5.28,-10.84 20.64,20.64 0 0 1 -10.920002,-10 c -2,-3.79 -3.32,-11.66 -4,-23.41 -1.05,-17.66 0.4,-20.3 1.18,-21.72 2.53,-4.6 10.800002,-10.09 35.800002,-10.09 12,0 20.58,0.3 26.17,0.91 4.4,0.48 12.58,1.37 14.28,8.41 1.42,5.87 -1.1,38.28 -3.46,44.46 -2.05,5.36 -6,9.07 -11.86,11.07 -1.86,4.54 -5,9.63 -8.09,12.32 -4.29,3.69 -12.03,4.65 -17.49,4.65 z m -4.29,-16.43 c 2.58,0.8 9.19,0.5 11.59,-0.57 a 24.5,24.5 0 0 0 4.12,-7.9 8,8 0 0 1 6.62,-6.63 c 3.84,-0.62 4.21,-1.58 4.45,-2.22 1.2,-3.63 2.69,-22.29 2.87,-31.2 -3.61,-0.41 -10.78,-0.86 -24.92,-0.86 -12.63,0 -18.72,1.53 -21.29,2.48 -0.08,2.75 0,7.52 0.35,13.51 0.69,10.53 1.83,15.06 2.21,15.92 1,2 2.3,2.52 4.74,3 a 8,8 0 0 1 6.5,6.61 27.05,27.05 0 0 0 2.76,7.86 z"
     fill="#191919"
     id="path1238" />
  <path
     d="m 197.8404,74.18242 a 66.15,66.15 0 1 0 -112.690002,47 c 9.43,9.34 15.200002,28.3 15.120002,37.55 -0.08,9.25 61.39,4.45 61.85,-0.17 1.24,-12.48 6.21,-27.91 15.32,-36.63 a 65.92,65.92 0 0 0 20.4,-47.75 z"
     fill="#191919"
     id="path1240" />
  <path
     d="m 123.5004,172.01242 c -2.75,0 -5.38,-0.06 -7.82,-0.2 a 59.45,59.45 0 0 1 -13.14,-1.89 c -9.000002,-2.63 -10.280002,-8.19 -10.250002,-11.27 0.07,-7.65 -5.25,-24.37 -12.75,-31.79 a 74.15,74.15 0 1 1 126.300002,-52.68 73.48,73.48 0 0 1 -22.87,53.54 c -8,7.61 -11.92,21.8 -12.89,31.64 -0.74,7.43 -8.11,9.57 -23.34,11.31 a 210.66,210.66 0 0 1 -23.24,1.34 z m -15.42,-17.15 c 3.67,0.8 11.58,1.51 23.68,1 a 145.83,145.83 0 0 0 23,-2.58 c 2,-12.49 7.3,-27.64 17.16,-37.08 a 58.1,58.1 0 1 0 -98.270002,-45.38 58.3,58.3 0 0 0 17.19,44.69 c 10.080002,10 16.080002,28.05 17.240002,39.35 z"
     fill="#191919"
     id="path1242" />
  <g
     id="g1248"
     transform="translate(2.8403981,-19.48758)">
    <path
       d="m 5.57,106.62 c -2.2,2.11 5.12,34.74 7,36.38 1.88,1.64 26,-21.29 25.37,-24.4 C 37.31,115.49 7.77,104.51 5.57,106.62 Z"
       fill="#191919"
       id="path1244" />
    <path
       d="M 12.74,151.08 A 8.33,8.33 0 0 1 7.22,149 C 5.58,147.53 4,146.15 0.5,130.34 c -1,-4.32 -3.23,-15 -3.34,-21 0,-1.68 -0.1,-5.61 2.87,-8.46 3.91,-3.74 9.16,-2.94 18.74,0.12 a 148.24,148.24 0 0 1 15,5.72 c 7.11,3.21 11.13,5.82 12,10.42 1,5.25 -2.8,10.09 -11.71,18.93 -1.74,1.73 -10.68,10.49 -15.94,13.48 a 10.85,10.85 0 0 1 -5.38,1.53 z M 14,116.22 c 0.73,4.31 1.82,9.58 2.87,14 3.2,-2.9 6.82,-6.42 9.55,-9.33 C 22.76,119.31 18,117.53 14,116.22 Z"
       fill="#191919"
       id="path1246" />
  </g>
  <g
     id="g1254"
     transform="translate(2.8403981,-19.48758)">
    <path
       d="m 213.84,134 c -2,2.26 7.62,34.28 9.58,35.78 1.96,1.5 24.36,-23.12 23.54,-26.17 -0.82,-3.05 -31.08,-11.92 -33.12,-9.61 z"
       fill="#191919"
       id="path1250" />
    <path
       d="m 223.6,177.81 a 8.36,8.36 0 0 1 -5,-1.72 c -1.74,-1.33 -3.38,-2.59 -8.05,-18.11 -1.28,-4.24 -4.31,-14.75 -4.85,-20.75 -0.15,-1.67 -0.51,-5.58 2.25,-8.64 3.63,-4 8.92,-3.6 18.71,-1.24 A 148.16,148.16 0 0 1 242,132 c 7.32,2.69 11.51,5 12.72,9.52 1.38,5.17 -2.06,10.26 -10.3,19.73 -1.61,1.85 -9.89,11.23 -14.92,14.6 a 10.49,10.49 0 0 1 -5.9,1.96 z M 223,142.93 c 1,4.24 2.51,9.42 3.88,13.77 3,-3.12 6.33,-6.9 8.85,-10 -3.83,-1.33 -8.68,-2.76 -12.73,-3.77 z"
       fill="#191919"
       id="path1252" />
  </g>
  <g
     id="g1260"
     transform="translate(2.8403981,-19.48758)">
    <path
       d="m 213.07,33.94 c -2,1.55 1.22,29 2.6,30.55 1.38,1.55 23.21,-15.29 23,-17.9 -0.21,-2.61 -23.61,-14.2 -25.6,-12.65 z"
       fill="#191919"
       id="path1256" />
    <path
       d="m 215.93,72.57 a 8.41,8.41 0 0 1 -6.16,-2.69 c -1.44,-1.57 -2.68,-2.93 -4.28,-16.69 -0.43,-3.68 -1.38,-12.8 -0.94,-17.89 0.12,-1.43 0.45,-5.22 3.62,-7.68 4.46,-3.45 10,-1.45 16.81,1.53 21,9.21 21.41,13.93 21.65,16.75 0.39,4.57 -2.25,8.1 -11.77,15.77 -1.6,1.29 -9.84,7.83 -14.59,9.91 a 10.76,10.76 0 0 1 -4.34,0.99 z m 4.8,-27.79 c 0.18,2.28 0.43,4.75 0.7,7.08 1.76,-1.33 3.58,-2.77 5.19,-4.12 -1.86,-0.99 -3.92,-2.03 -5.89,-2.96 z"
       fill="#191919"
       id="path1258" />
  </g>
  <g
     id="g1264"
     transform="translate(2.8403981,-19.48758)">
    <path
       d="m 5.57,106.62 c -2.2,2.11 5.12,34.74 7,36.38 1.88,1.64 26,-21.29 25.37,-24.4 C 37.31,115.49 7.77,104.51 5.57,106.62 Z"
       fill="#ffffff"
       id="path1262" />
  </g>
  <g
     id="g1268"
     transform="translate(2.8403981,-19.48758)">
    <path
       d="m 213.84,134 c -2,2.26 7.62,34.28 9.58,35.78 1.96,1.5 24.36,-23.12 23.54,-26.17 -0.82,-3.05 -31.08,-11.92 -33.12,-9.61 z"
       fill="#ffffff"
       id="path1266" />
  </g>
  <g
     id="g1272"
     transform="translate(2.8403981,-19.48758)">
    <path
       d="m 213.07,33.94 c -2,1.55 1.22,29 2.6,30.55 1.38,1.55 23.21,-15.29 23,-17.9 -0.21,-2.61 -23.61,-14.2 -25.6,-12.65 z"
       fill="#ffffff"
       id="path1270" />
  </g>
  <g
     id="g1278"
     transform="translate(2.8403981,-19.48758)">
    <path
       d="m 159.29,170.57 c -0.48,-2 -8.3,-3.2 -32.68,-3.2 -23,0 -28.16,4.79 -28.79,5.94 -1.29,2.34 -0.24,31.5 2.92,37.59 2.85,5.5 7.39,6.67 10.47,7.22 0.52,3.28 2.43,9.25 4.87,12.28 3.34,4.16 18.68,3.22 22.37,0.06 3,-2.59 6.52,-9.68 7,-12.92 3.49,-0.57 8.58,-1.85 10.65,-7.26 2.03,-5.28 4.12,-35.85 3.19,-39.71 z"
       fill="#e83a2a"
       id="path1274"
       style="fill:#70ad47;fill-opacity:1" />
    <path
       d="m 195,93.67 a 66.15,66.15 0 1 0 -112.69,47 c 9.43,9.34 15.2,28.3 15.12,37.55 -0.08,9.25 61.39,4.45 61.85,-0.17 1.24,-12.48 6.21,-27.91 15.32,-36.63 A 65.92,65.92 0 0 0 195,93.67 Z"
       fill="#ffffff"
       id="path1276" />
  </g>
  <path
     style="fill:#70ad47;fill-opacity:1;stroke:#000000;stroke-width:0;stroke-linejoin:bevel;stroke-miterlimit:4.2;stroke-dashoffset:26.28"
     id="path3326"
     sodipodi:type="arc"
     sodipodi:cx="-98.377365"
     sodipodi:cy="-86.842133"
     sodipodi:rx="29.457884"
     sodipodi:ry="31.740993"
     sodipodi:start="0"
     sodipodi:end="2.0394356"
     sodipodi:open="true"
     sodipodi:arc-type="arc"
     d="m -68.919481,-86.842133 a 29.457884,31.740993 0 0 1 -14.033548,27.042067 29.457884,31.740993 0 0 1 -28.729661,1.276731"
     transform="matrix(-0.97173231,0.23608539,-0.22432968,-0.97451331,0,0)" />
</svg>
