<?xml version="1.0" encoding="UTF-8" standalone="no"?>
<!-- Uploaded to: SVG Repo, www.svgrepo.com, Generator: SVG Repo Mixer Tools -->

<svg
   width="800px"
   height="800px"
   viewBox="-13.75 0 275.497 275.497"
   version="1.1"
   id="svg276"
   sodipodi:docname="computer-and-people-svgrepo-com.svg"
   inkscape:version="1.2.2 (732a01da63, 2022-12-09)"
   xmlns:inkscape="http://www.inkscape.org/namespaces/inkscape"
   xmlns:sodipodi="http://sodipodi.sourceforge.net/DTD/sodipodi-0.dtd"
   xmlns="http://www.w3.org/2000/svg"
   xmlns:svg="http://www.w3.org/2000/svg">
  <sodipodi:namedview
     id="namedview278"
     pagecolor="#ffffff"
     bordercolor="#000000"
     borderopacity="0.25"
     inkscape:showpageshadow="2"
     inkscape:pageopacity="0.0"
     inkscape:pagecheckerboard="0"
     inkscape:deskcolor="#d1d1d1"
     showgrid="false"
     inkscape:zoom="0.36990524"
     inkscape:cx="-118.94938"
     inkscape:cy="332.5176"
     inkscape:window-width="1920"
     inkscape:window-height="1017"
     inkscape:window-x="-8"
     inkscape:window-y="-8"
     inkscape:window-maximized="1"
     inkscape:current-layer="svg276" />
  <defs
     id="defs204">
    <style
       id="style202">.a{fill:#cfcfcf;}.b{fill:#ffffff;}.c{fill:#3f88c9;}.d{fill:#211715;}.e{fill:#7a7473;}</style>
  </defs>
  <path
     class="a"
     d="m 112.70565,180.555 c 3.15,-1.837 9.337,-5.478 16.487,-9.691 a 1.09,1.09 0 0 0 0.537,-0.936 v -11.2 l 51.45,29.744 v 10.263 a 1.09,1.09 0 0 1 -0.543,0.939 c -8.432,4.9 -15.584,9.057 -18.466,10.723 a 1.056,1.056 0 0 1 -1.084,-0.007 c -6.012,-3.6 -33.831,-19.57 -48.38,-27.968 a 1.078,1.078 0 0 1 -10e-4,-1.867 z"
     id="path206" />
  <path
     class="b"
     d="m 80.894654,3.921 c 0,28.635 0,84.982 -0.007,125.428 a 1.974,1.974 0 0 0 0.992,1.72 c 41.582996,24.031 119.336996,68.99 159.556996,92.238 a 2.98,2.98 0 0 0 4.475,-2.582 c 0,-32.761 0.006,-86.636 0.012,-123.149 A 2.971,2.971 0 0 0 244.43265,95 C 207.75765,73.8 102.96165,13.22 83.890654,2.2 a 2,2 0 0 0 -2.996,1.721 z"
     id="path208" />
  <path
     class="a"
     d="m 239.08665,221.948 6.825,3.945 c 0,-7.209 0,-15.728 0,-25.045 -38.952,-22.515 -122.119,-70.6 -165.018996,-95.393 0,8.753 0,17.207 0,25.04 40.537996,23.433 117.025996,67.658 158.193996,91.453 z"
     id="path210" />
  <path
     class="c"
     d="m 134.34665,115.5 -16.857,-9.746 c 0,-12.086 0.006,-30.055 0.009,-59.541 l 16.854,9.747 c 0,1.228 -0.004,40.545 -0.006,59.54 z"
     id="path212"
     style="fill:#70ad47;fill-opacity:1" />
  <path
     class="c"
     d="m 168.53965,135.388 -16.858,-9.746 c 0,-12.086 0.007,-17.459 0.009,-46.945 l 16.855,9.747 c 0,1.233 -0.004,27.956 -0.006,46.944 z"
     id="path214"
     style="fill:#70ad47;fill-opacity:1" />
  <path
     class="c"
     d="m 202.53065,155.083 -16.857,-9.746 c 0,-12.086 0.006,-0.127 0.009,-29.613 l 16.854,9.746 c 0,1.23 -0.004,10.623 -0.006,29.613 z"
     id="path216"
     style="fill:#70ad47;fill-opacity:1" />
  <path
     class="d"
     d="m 82.894654,3.921 q 0,33.5 0,66.991 0,19.429 0,38.859 0,8.889 0,17.778 a 6.468,6.468 0 0 0 -0.009,1.784 c 0.184,0.272 0.887,0.516 1.177,0.683 l 2.873,1.661 6.045,3.494 q 28.919996,16.716 57.836996,33.435 l 61.18,35.373 25.581,14.787 2.822,1.634 c 0.685,0.4 1.712,1.3 2.5,1.316 0.805,0.011 0.98,-0.637 1.009,-1.292 0.059,-1.347 0,-2.71 0,-4.058 v -16.5 q 0,-37.9 0.008,-75.8 0,-9.054 0,-18.108 V 101.7 a 26.557,26.557 0 0 0 0,-4.126 c -0.2,-1.192 -2.533,-2.027 -3.512,-2.593 q -9.337,-5.4 -18.673,-10.793 -24.536,-14.188 -49.078,-28.372 l -50.565,-29.231 -35.306996,-20.411 -2.424,-1.4 -0.991,-0.574 a 3.65,3.65 0 0 1 -0.49,-0.283 c -0.018,-0.014 0.015,-0.023 0.013,0 -0.2,2.55 -4.2,2.571 -4,0 a 4.067,4.067 0 0 1 6.25,-3.317 c 0.752,0.415 1.488,0.86 2.232,1.29 l 6.144,3.552 17.699996,10.232 48.997,28.326 52.266,30.217 21.8,12.6 8.807,5.092 c 1.829,1.057 3.847,1.954 4.581,4.111 a 13.583,13.583 0 0 1 0.252,4.292 v 4.572 q 0,38.733 -0.008,77.467 0,17.642 0,35.281 c 0,2.707 0.317,5.7 -2.359,7.33 -2.676,1.63 -5.053,0.113 -7.4,-1.244 l -12.185,-7.043 -59.693,-34.508 q -31.089,-17.975 -62.179,-35.946 l -13.140996,-7.6 -6.288,-3.635 c -1.991,-1.151 -5.136,-2.264 -5.677,-4.759 a 21.9,21.9 0 0 1 -0.1,-4.5 v -4.817 q 0,-4.591 0,-9.185 0,-9.786 0,-19.572 0,-37.421 0,-74.84 V 3.921 c 0.005,-2.574 4.005,-2.578 4.005,0 z"
     id="path218" />
  <path
     class="d"
     d="m 244.89965,202.575 -27.2,-15.725 q -16.766,-9.691 -33.53,-19.384 -18.132,-10.481 -36.262,-20.963 l -34.9,-20.175 -29.939996,-17.305 -3.192,-1.845 c -2.228,-1.287 -0.216,-4.745 2.019,-3.454 l 29.058996,16.8 34.487,19.937 36.318,21 34.053,19.678 28.194,16.3 2.913,1.684 c 2.228,1.288 0.216,4.746 -2.019,3.454 z"
     id="path220" />
  <path
     class="d"
     d="m 133.33765,117.222 -8.975,-5.189 -4.158,-2.4 -2.28,-1.318 c -0.82,-0.474 -1.873,-0.866 -2.263,-1.792 a 7.23,7.23 0 0 1 -0.172,-2.66 v -2.441 q 0,-2.672 0,-5.342 0,-13.954 0,-27.908 v -21.96 a 2.019,2.019 0 0 1 3.009,-1.727 l 11.526,6.665 c 1.76,1.018 3.646,1.94 5.329,3.082 a 2.324,2.324 0 0 1 0.99,2.084 c 0.065,2.662 0,5.333 0,8 q 0,16.534 0,33.071 0,9.057 0,18.116 c 0,2.574 -4,2.578 -4,0 l 0.006,-53.8 v -5.748 l 0.991,1.726 -16.854,-9.746 3.009,-1.727 q 0,25.317 -0.008,50.635 0,4.452 0,8.906 l -0.991,-1.727 16.858,9.746 c 2.23,1.288 0.213,4.746 -2.017,3.454 z"
     id="path222" />
  <path
     class="d"
     d="m 167.52965,137.115 -8.975,-5.189 -4.157,-2.4 -2.281,-1.318 c -0.82,-0.474 -1.873,-0.866 -2.263,-1.792 -0.528,-1.253 -0.172,-3.292 -0.171,-4.655 q 0,-2 0,-4 0,-9.732 0.005,-19.464 0,-9.8 0,-19.6 a 2.02,2.02 0 0 1 3.01,-1.727 c 5.479,3.169 11.1,6.171 16.471,9.525 1.291,0.807 1.374,1.676 1.374,2.984 v 3.142 25.757 q 0,8.505 0,17.01 c 0,2.574 -4,2.578 -4,0 q 0,-21.384 0,-42.767 0,-2.088 0,-4.177 l 0.99,1.726 -16.854,-9.746 3.012,-1.724 q 0,19.8 -0.007,39.6 0,3.671 0,7.341 l -0.991,-1.727 q 8.43,4.872 16.858,9.746 c 2.226,1.289 0.217,4.747 -2.021,3.455 z"
     id="path224" />
  <path
     class="d"
     d="m 201.52165,156.81 -8.975,-5.189 -4.158,-2.4 -2.28,-1.319 c -0.82,-0.474 -1.873,-0.866 -2.263,-1.792 -0.465,-1.1 -0.172,-2.833 -0.172,-4.041 q 0,-1.073 0,-2.146 0,-3.924 0.005,-7.847 0,-8.175 0,-16.349 a 2.018,2.018 0 0 1 3.013,-1.727 l 12.938,7.481 2.955,1.709 c 1,0.578 1.878,1.063 1.952,2.336 0.021,0.347 0,0.7 0,1.048 q 0,6.847 0,13.694 0,7.41 0,14.818 c 0,2.574 -4,2.579 -4,0 q 0,-14.806 0.006,-29.613 l 0.985,1.727 -16.86,-9.749 3.01,-1.727 q 0,12.213 -0.008,24.425 0,2.595 0,5.188 l -0.991,-1.727 q 8.428,4.873 16.858,9.746 c 2.231,1.289 0.22,4.744 -2.015,3.454 z"
     id="path226" />
  <path
     class="d"
     d="m 183.17965,188.741 v 8.433 c 0,1.525 0.093,3.032 -1.308,4.053 a 49.8,49.8 0 0 1 -4.388,2.594 l -4.22,2.452 q -3.491,2.028 -6.982,4.055 c -1.866,1.083 -3.984,2.906 -6.2,1.79 -2.43,-1.221 -4.744,-2.788 -7.1,-4.153 q -12.442,-7.222 -24.921,-14.386 -6.309,-3.633 -12.618,-7.269 c -1.793,-1.034 -5.079,-2.172 -5.241,-4.55 -0.177,-2.595 2.659,-3.611 4.532,-4.709 q 4.251,-2.494 8.5,-5 l 2.424,-1.427 1.253,-0.738 0.635,-0.375 q 0.451,-0.386 0.187,0.414 c 0.12,-0.117 0,-1.012 0,-1.155 v -9.328 c 0,-2.574 4,-2.578 4,0 0,3.47 0.183,6.988 0,10.452 -0.117,2.207 -1.958,2.948 -3.641,3.939 l -5.872,3.457 q -2.451,1.441 -4.9,2.882 l -2.1,1.233 c -0.295,0.172 -0.588,0.378 -0.9,0.524 -0.961,0.458 0.224,-0.246 -0.116,-0.7 l -0.718,-0.717 a 54.91,54.91 0 0 0 6.212,3.628 q 3.549,2.046 7.1,4.089 7.381,4.251 14.761,8.5 6.507,3.753 13,7.517 2.427,1.409 4.849,2.823 0.856,0.5 1.712,1.006 a 4.727,4.727 0 0 1 0.578,0.343 2.577,2.577 0 0 1 0.306,0.182 q -1.079,0.147 -0.532,-0.113 l 0.337,-0.195 q 3.671,-2.126 7.336,-4.258 l 5.13,-2.98 a 50.694,50.694 0 0 0 5.581,-3.287 l -0.717,0.717 c -0.066,0.086 0.023,0.375 0.044,-0.131 0.013,-0.333 0,-0.669 0,-1 v -8.617 c 0,-2.574 4,-2.578 4,0 z"
     id="path228" />
  <path
     class="d"
     d="m 229.30765,123.352 q -19.109,-17.72 -38.132,-35.532 c -1.878,-1.769 0.955,-4.593 2.829,-2.828 q 18.969,17.868 38.132,35.532 c 1.891,1.754 -0.942,4.578 -2.829,2.828 z"
     id="path230" />
  <path
     class="d"
     d="m 160.75165,203.2 c -10.029,-5.87 -20.134,-11.611 -30.187,-17.438 -2.008,-1.164 -4.018,-2.324 -6.012,-3.511 -2.21,-1.315 -0.2,-4.774 2.019,-3.453 9.924,5.905 19.991,11.576 29.992,17.351 2.071,1.2 4.143,2.389 6.207,3.6 2.22,1.3 0.209,4.759 -2.019,3.454 z"
     id="path232" />
  <path
     class="b"
     d="m 3.4076535,257.081 1,-0.54 v 0 c 3.164,1.524 13.1360005,1.711 15.0250005,0.345 3.606,4.147 8.8,4.747 13.478,4.119 a 7.929,7.929 0 0 0 1.879,-0.376 13.111,13.111 0 0 0 4.53,-2.641 c 0.013,-0.013 0.031,-0.02 0.043,-0.034 l 0.575,0.053 c 0.771,-0.463 3.122,0.014 4.086,1.464 0.964,1.45 0.929,4.243 0.385,5.9 -1.186,3.6 -4.657,5.432 -8.227,6.719 a 21.527,21.527 0 0 1 -11.544,1.028 6.026,6.026 0 0 1 -3.849,-2.99 7.929,7.929 0 0 1 -0.879,-2.816 l -6.141,1.412 a 15.565,15.565 0 0 1 -3.8320005,0.492 18.167,18.167 0 0 1 -1.833,-0.106 6.079,6.079 0 0 1 -4.575,-2.479 7.9,7.9 0 0 1 -0.9,-3.765 c -0.034,-1.317 0.821,-4.473 0.779,-5.785 z"
     id="path234" />
  <path
     class="b"
     d="m 20.503654,120.941 a 6.61,6.61 0 0 0 0.925,2.241 9.689,9.689 0 0 0 3.662,3.211 19.471,19.471 0 0 1 -12.395,9.485 10.3,10.3 0 0 1 2.282,3.006 23.6,23.6 0 0 1 6.659,0.514 c 5.508,1.071 13.1,3.571 15.086,4.861 a 14.483,14.483 0 0 1 3.306,3.092 l -1.272,-4.1 a 7.61,7.61 0 0 1 -0.03,-4.626 7,7 0 0 1 3.132,-3.459 l -0.526,-2.838 c 0.011,-0.009 0.021,-0.02 0.031,-0.03 a 18.53,18.53 0 0 0 4.838,-9.539 23.544,23.544 0 0 0 -4.12,-18.329 22.768,22.768 0 0 0 -2.948,-3.269 40.109,40.109 0 0 1 -13.236,13.89 4.482,4.482 0 0 0 -5,2.206 5.606,5.606 0 0 0 -0.394,3.684 z"
     id="path236" />
  <path
     class="b"
     d="m 43.955654,134.339 a 7.452,7.452 0 0 1 3.383,-0.05 6.759,6.759 0 0 1 5.277,7.222 l -0.136,1.992 a 2.525,2.525 0 0 0 -0.867,0.2 c -2.082,0.983 -7.969,4.259 -9.51,5.261 l -0.6,0.375 a 19.484,19.484 0 0 0 -4.128,-4.617 l 1.384,-1.471 a 7.61,7.61 0 0 1 -0.03,-4.626 7.448,7.448 0 0 1 5.227,-4.286 z"
     id="path238" />
  <path
     class="e"
     d="m 28.487654,95.7 a 22.742,22.742 0 0 1 10.653,5.462 40.228,40.228 0 0 1 -13.243,13.884 4.482,4.482 0 0 0 -5,2.206 6.138,6.138 0 0 0 0.528,5.928 9.689,9.689 0 0 0 3.662,3.211 19.472,19.472 0 0 1 -12.392,9.485 c -0.095,-0.1 -0.193,-0.2 -0.295,-0.316 -2.7780005,-3.056 -4.7790005,-5.185 -6.4790005,-8.187 a 22.081,22.081 0 0 1 -2.75,-13.893 c 1.384,-9.628 9.5710005,-17.685 19.2870005,-18.235 a 22.894,22.894 0 0 1 6.029,0.455 z"
     id="path240" />
  <path
     class="d"
     d="m 36.323654,113.9 a 3.178,3.178 0 0 0 1.493,2.272 2.481,2.481 0 0 0 1.841,0.188 2.769,2.769 0 0 0 1.864,-1.672 3.239,3.239 0 0 0 -1.115,-3.646 2.563,2.563 0 0 0 -3.457,0.488 2.858,2.858 0 0 0 -0.626,2.37 z"
     id="path242" />
  <path
     class="b"
     d="m 12.267654,200.089 q -1.695,-0.264 -3.4770005,-0.556 c -1.61,-0.263 -4.326,-0.975 -5.2,-2.024 -1.111,-1.334 -1.054,-2.744 -1.114,-4.729 -0.46,-15.271 -1.348,-26.657 1.32,-39.685 0.835,-4.078 2,-8.318 4.918,-11.285 2.9180005,-2.967 6.6320005,-3.636 12.9230005,-2.412 5.508,1.071 13.1,3.571 15.086,4.861 a 18.031,18.031 0 0 1 4.786,5.088 l 0.594,-0.386 c 1.541,-1 7.428,-4.278 9.51,-5.261 a 2.9,2.9 0 0 1 1.405,-0.193 c 0.613,0.089 0.918,0.778 1.1,1.37 a 113.013,113.013 0 0 1 3.26,15.626 52.989,52.989 0 0 1 0.294,16.169 7.835,7.835 0 0 1 -3.217,5.125 c -1.488,1.243 -3.712,1.112 -5.6,0.682 a 16.7,16.7 0 0 1 -5.48,-2.381 l 0.068,6.594 c 0.007,3.107 -0.129,6.669 -0.129,6.669 0.068,1.676 -0.812,4.5 -2.185,5.444 -1.222,0.843 -2.852,1.222 -6.519,1.889 -7.496,1.362 -14.221,0.661 -22.343,-0.605 z"
     id="path244" />
  <path
     class="a"
     d="m 26.001654,201.435 a 46.581,46.581 0 0 0 8.606,-0.741 c 4.127,-0.75 5.673,-1.137 6.963,-2.229 0.075,9.009 -0.638,44.383 -1.336,57.241 l -0.214,1.067 c -0.308,1.541 -2.7,2.852 -5.225,3.855 a 7.929,7.929 0 0 1 -1.879,0.376 c -4.674,0.628 -9.872,0.028 -13.478,-4.119 -2.311,1.671 -16.7180005,1.019 -15.9630005,-1.56 0.465,-12.777 0.875,-38.592 0.5,-50.05 0,0 0.1,-3.931 0.188,-7.27 a 13.638,13.638 0 0 0 4.623,1.528 110.641,110.641 0 0 0 17.2150005,1.902 z"
     id="path246" />
  <path
     class="d"
     d="m 43.567654,200.941 c -0.045,14.884 -0.418,29.777 -0.919,44.652 -0.114,3.414 -0.238,6.828 -0.423,10.239 -0.14,2.56 -4.141,2.576 -4,0 0.808,-14.858 1.011,-29.767 1.235,-44.642 0.052,-3.416 0.1,-6.832 0.107,-10.249 0.008,-2.573 4.008,-2.578 4,0 z"
     id="path248" />
  <path
     class="d"
     d="m 5.9786535,205.275 c 0.443,13.93 0.095,27.915 -0.257,41.844 -0.084,3.321 -0.179,6.642 -0.314,9.962 -0.1,2.565 -4.1,2.578 -4,0 0.566,-13.933 0.753,-27.9 0.713,-41.843 -0.01,-3.321 -0.037,-6.643 -0.142,-9.963 -0.082,-2.575 3.918,-2.572 4,0 z"
     id="path250" />
  <path
     class="d"
     d="m 21.667654,219.465 c 0.566,11 0.866,22.041 0.98,33.056 0.02,1.9 0.087,3.82 -0.055,5.716 -0.191,2.551 -4.193,2.572 -4,0 0.32,-4.267 0.026,-8.636 -0.071,-12.906 q -0.212,-9.343 -0.556,-18.682 c -0.087,-2.4 -0.175,-4.79 -0.3,-7.184 -0.132,-2.572 3.868,-2.565 4,0 z"
     id="path252" />
  <path
     class="d"
     d="m 41.949654,257.3 c -0.5,1.954 -2.32,3.219 -4.016,4.1 a 14.61,14.61 0 0 1 -3.217,1.34 21.2,21.2 0 0 1 -3.269,0.417 16.788,16.788 0 0 1 -11.957,-3.429 2.012,2.012 0 0 1 0,-2.828 2.049,2.049 0 0 1 2.829,0 12.565,12.565 0 0 0 8.534,2.293 11.255,11.255 0 0 0 4.477,-0.959 10.712,10.712 0 0 0 2.133,-1.222 5.647,5.647 0 0 0 0.552,-0.542 q -0.127,0.15 0.069,-0.14 c -0.061,0.165 -0.059,0.135 0.008,-0.089 0.641,-2.491 4.5,-1.435 3.857,1.063 z"
     id="path254" />
  <path
     class="d"
     d="m 19.201654,259.164 a 23.474,23.474 0 0 1 -7.817,0.6 21.22,21.22 0 0 1 -7.9850005,-1.493 2.016,2.016 0 0 1 -0.717,-2.736 2.046,2.046 0 0 1 2.736,-0.718 c 0.36,0.168 -0.468,-0.157 -0.065,-0.025 0.1,0.032 0.192,0.071 0.289,0.1 0.233,0.079 0.471,0.148 0.709,0.211 0.553,0.145 1.116,0.254 1.68,0.346 l 0.42,0.064 c 0.24,0.037 -0.319,-0.035 0.076,0.011 0.33,0.038 0.659,0.076 0.99,0.107 q 1.0260005,0.1 2.0550005,0.137 a 36.5,36.5 0 0 0 3.914,-0.036 c 0.272,-0.019 0.544,-0.041 0.816,-0.068 0.154,-0.015 0.308,-0.037 0.462,-0.051 -0.541,0.049 -0.054,0.007 0.047,-0.009 a 9.555,9.555 0 0 0 1.326,-0.3 2.001016,2.001016 0 1 1 1.064,3.858 z"
     id="path256" />
  <path
     class="d"
     d="m 38.934654,256.279 a 5.364,5.364 0 0 1 4.916,0.409 6.006,6.006 0 0 1 2.862,4.808 10.493,10.493 0 0 1 -4.786,10.024 24.751,24.751 0 0 1 -12.462,3.948 c -4.222,0.213 -8.782,-0.681 -10.685,-4.921 -1.634,-3.642 -0.976,-7.937 -0.112,-11.685 0.579,-2.508 4.436,-1.446 3.858,1.063 a 23.546,23.546 0 0 0 -0.73,5.828 8.732,8.732 0 0 0 0.175,1.752 c 0.061,0.272 0.126,0.542 0.21,0.808 0.026,0.082 0.315,0.786 0.122,0.372 1.716,3.7 6.969,3.084 10.281,2.359 3.249,-0.711 7.567,-2.081 9.389,-5.122 a 6.269,6.269 0 0 0 0.69,-4.541 1.629,1.629 0 0 0 -0.959,-1.311 c -0.268,-0.125 -0.588,-0.128 -0.85,-0.247 -0.126,-0.058 -0.271,0.087 0.1,-0.09 -2.31,1.108 -4.342,-2.34 -2.019,-3.454 z"
     id="path258" />
  <path
     class="d"
     d="m 5.4076535,257.081 a 25.206,25.206 0 0 1 -0.643,4.47 3.7,3.7 0 0 0 -0.1,0.607 c 0,-0.526 0.016,-0.118 0,0.021 a 5.969,5.969 0 0 0 -0.027,0.856 c 0.01,0.243 0.033,0.483 0.051,0.725 0.035,0.469 -0.058,-0.207 0.03,0.22 0.052,0.251 0.1,0.5 0.165,0.749 0.021,0.074 0.209,0.637 0.144,0.474 -0.065,-0.163 0.195,0.349 0.228,0.415 q 0.2,0.284 0,0.027 c 0.055,0.068 0.113,0.135 0.174,0.2 a 5,5 0 0 0 0.448,0.425 c -0.314,-0.264 0.171,0.1 0.248,0.149 0.18,0.109 0.366,0.2 0.555,0.3 0.211,0.1 0.219,0.1 0.023,0.01 0.085,0.032 0.171,0.063 0.257,0.091 a 9.85,9.85 0 0 0 1.233,0.3 q 0.222,0.035 -0.087,-0.012 c 0.15,0.015 0.3,0.03 0.451,0.042 0.249,0.021 0.5,0.038 0.748,0.049 0.465,0.02 0.9300005,0.021 1.3940005,0 0.225,-0.011 0.448,-0.034 0.672,-0.05 q 0.361,-0.043 0.046,0 l 0.291,-0.044 c 0.515,-0.083 1.024,-0.192 1.532,-0.31 a 2.0004011,2.0004011 0 1 1 1.063,3.857 c -4.141,0.969 -10.0550005,1.109 -12.5450005,-3.09 a 9.427,9.427 0 0 1 -1.04199995,-5.789 c 0.125,-0.973 0.29999995,-1.935 0.47699995,-2.9 0.037,-0.211 0.074,-0.422 0.109,-0.634 q 0.025,-0.151 0.048,-0.3 c 0.033,-0.23 0.03,-0.2 -0.011,0.1 a 2.747,2.747 0 0 0 0.065,-0.951 2,2 0 1 1 4,0 z"
     id="path260" />
  <path
     class="d"
     d="m 34.551654,167.839 c 2.708,3.73 5.582,7.653 9.436,10.281 a 15.09,15.09 0 0 0 6.12,2.575 4.61,4.61 0 0 0 5.03,-2.627 7.874,7.874 0 0 0 0.751,-3.04 c 0.167,-1.5 0.253,-3.013 0.271,-4.524 a 55.7,55.7 0 0 0 -0.636,-9 c -0.424,-2.789 -0.884,-5.577 -1.429,-8.344 -0.271,-1.383 -0.568,-2.761 -0.905,-4.129 q -0.281,-1.14 -0.6,-2.269 c -0.085,-0.3 -0.174,-0.6 -0.263,-0.9 a 4.322,4.322 0 0 1 -0.151,-0.51 q -0.108,-0.342 0.5,0.14 c 0,-0.02 -1.75,0.795 -1.892,0.87 -1,0.526 -1.993,1.067 -2.982,1.614 -1.579,0.874 -3.174,1.741 -4.694,2.716 -2.173,1.4 -4.181,-2.066 -2.019,-3.454 1.655,-1.062 3.4,-2 5.117,-2.949 1.746,-0.961 3.819,-2.464 5.826,-2.733 3.9,-0.522 4.445,4.045 5.122,6.87 0.8,3.353 1.378,6.755 1.927,10.157 a 73.377,73.377 0 0 1 1.072,10.486 c 0.025,1.595 -0.02,3.191 -0.153,4.78 a 18.011,18.011 0 0 1 -0.846,5.012 c -1,2.562 -3.324,5.159 -6.1,5.744 -2.815,0.593 -5.829,-0.3 -8.374,-1.476 -5.855,-2.7 -9.907,-8.195 -13.588,-13.267 a 2.016,2.016 0 0 1 0.718,-2.736 2.044,2.044 0 0 1 2.736,0.717 z"
     id="path262" />
  <path
     class="d"
     d="m 36.827654,143.78 a 8.465,8.465 0 0 1 4.575,-10.629 c 3.685,-1.72 8.337,-1.265 11.071,1.972 a 9.087,9.087 0 0 1 2.142,6.388 2.045,2.045 0 0 1 -2,2 2.019,2.019 0 0 1 -2,-2 c 0.015,-0.258 0.023,-0.516 0.014,-0.775 0,-0.084 -0.094,-0.836 -0.021,-0.407 a 9.4,9.4 0 0 0 -0.324,-1.244 q -0.126,-0.327 0,-0.025 c -0.05,-0.109 -0.1,-0.217 -0.158,-0.324 -0.082,-0.159 -0.172,-0.315 -0.267,-0.466 -0.044,-0.071 -0.479,-0.63 -0.211,-0.318 -0.156,-0.182 -0.315,-0.358 -0.487,-0.524 q -0.195,-0.187 -0.4,-0.358 c 0.314,0.257 -0.269,-0.171 -0.335,-0.212 -0.211,-0.128 -0.428,-0.242 -0.65,-0.349 0.347,0.168 -0.185,-0.069 -0.221,-0.081 a 7.067,7.067 0 0 0 -0.743,-0.211 c -0.121,-0.027 -0.242,-0.051 -0.364,-0.072 q 0.338,0.039 -0.021,0 a 10.7,10.7 0 0 0 -1.3,0 c -0.24,0.025 -0.248,0.025 -0.026,0 -0.123,0.02 -0.246,0.042 -0.368,0.068 q -0.276,0.058 -0.548,0.135 c -0.241,0.068 -0.478,0.149 -0.713,0.237 0.364,-0.136 -0.309,0.15 -0.377,0.186 -0.166,0.086 -0.329,0.179 -0.489,0.277 -0.06,0.037 -0.664,0.455 -0.359,0.222 a 9.2,9.2 0 0 0 -0.939,0.891 c -0.148,0.18 -0.159,0.188 -0.036,0.025 -0.073,0.1 -0.143,0.2 -0.211,0.3 -0.136,0.207 -0.246,0.424 -0.37,0.637 -0.2,0.349 0.033,-0.235 -0.1,0.219 a 5.678,5.678 0 0 0 -0.2,0.814 c 0.036,-0.279 -0.008,0.375 -0.009,0.451 0,0.261 0.013,0.518 0.026,0.778 q 0.042,0.379 0.005,0.123 c 0.022,0.142 0.047,0.282 0.075,0.422 0.054,0.265 0.122,0.525 0.2,0.784 a 2.000534,2.000534 0 0 1 -3.857,1.064 z"
     id="path264" />
  <path
     class="d"
     d="m 45.440654,186.692 c 0,2.217 -0.071,4.431 -0.128,6.647 a 9.621,9.621 0 0 1 -2.457,6.619 c -1.419,1.374 -3.549,1.841 -5.415,2.225 a 57.536,57.536 0 0 1 -8.891,1.2 c -6.161,0.289 -12.305,-0.638 -18.371,-1.609 -2.4320005,-0.389 -5.1850005,-0.717 -7.2430005,-2.2 -2.38399995,-1.717 -2.39299995,-4.625 -2.47399995,-7.279 -0.363,-11.885 -1.144,-23.811 0.66999995,-35.622 0.851,-5.545 1.952,-11.715 5.891,-15.985 3.4300005,-3.718 8.2330005,-4.238 13.0000005,-3.574 a 59.8,59.8 0 0 1 16.5,4.786 16.763,16.763 0 0 1 6.266,5.811 57.132,57.132 0 0 1 5.326,9.209 2.058,2.058 0 0 1 -0.717,2.737 2.017,2.017 0 0 1 -2.737,-0.718 59.1,59.1 0 0 0 -4.1,-7.411 c -1.341,-2.053 -2.843,-4.326 -4.986,-5.623 a 23.159,23.159 0 0 0 -4.572,-1.883 c -2.305,-0.785 -4.648,-1.471 -7.013,-2.052 -3.79,-0.932 -8.665,-2.184 -12.269,-0.027 -4.0000005,2.395 -5.1910005,7.665 -6.0460005,11.892 -2.065,10.22 -1.831,20.644 -1.474,31.009 q 0.151,4.377 0.291,8.754 c 0.026,0.818 -0.029,1.976 0.6,2.615 a 5.434,5.434 0 0 0 2.356,0.984 65.4,65.4 0 0 0 7.9260005,1.352 c 2.66,0.382 5.336,0.684 8.021,0.816 a 49.029,49.029 0 0 0 8.676,-0.283 28.1,28.1 0 0 0 7.245,-1.543 2.7,2.7 0 0 0 1.374,-1.4 6.808,6.808 0 0 0 0.618,-2.776 c 0.058,-2.224 0.13,-4.445 0.129,-6.669 0,-2.574 4,-2.579 4,0 z"
     id="path266" />
  <path
     class="d"
     d="m 13.009654,139.46 a 29.109,29.109 0 0 0 -3.7450005,-4.385 44.234,44.234 0 0 1 -4.226,-5.309 A 24.76,24.76 0 0 1 0.96765355,116.532 23.8,23.8 0 0 1 12.197654,96.5 c 6.974,-4.339 15.857,-4.2 23.063,-0.472 a 25.275,25.275 0 0 1 13.34,21.2 c 0.477,9.916 -5.863,21.4 -16.988,21.064 -2.568,-0.078 -2.579,-4.079 0,-4 8.238,0.25 12.845,-8.116 13.009,-15.42 a 21.3,21.3 0 0 0 -10.079,-18.666 c -5.778,-3.484 -13.279,-4.136 -19.291,-0.859 A 19.768,19.768 0 0 0 5.0166535,115 a 20.84,20.84 0 0 0 3.585,12.908 43.1,43.1 0 0 0 4.1000005,5 28.571,28.571 0 0 1 3.767,4.526 c 1.309,2.223 -2.147,4.238 -3.454,2.019 z"
     id="path268" />
  <path
     class="d"
     d="m 40.124654,103.417 a 42.931,42.931 0 0 1 -12.826,13.105 2.014,2.014 0 0 1 -2.736,-0.718 2.045,2.045 0 0 1 0.717,-2.736 q 0.9,-0.592 1.772,-1.229 c 0.138,-0.1 0.275,-0.2 0.412,-0.307 l 0.164,-0.124 c -0.106,0.083 -0.106,0.083 0,0 q 0.445,-0.348 0.88,-0.709 a 40.327,40.327 0 0 0 3.095,-2.852 c 0.982,-1.005 1.9,-2.063 2.781,-3.159 l 0.127,-0.161 c -0.082,0.107 -0.081,0.107 0,0 0.1,-0.136 0.206,-0.273 0.308,-0.41 q 0.307,-0.413 0.6,-0.832 0.651,-0.924 1.247,-1.884 a 2.0004048,2.0004048 0 0 1 3.454,2.019 z"
     id="path270" />
  <path
     class="d"
     d="m 25.416654,116.982 c -0.1,-0.025 -0.587,-0.081 -0.095,-0.045 -0.16,-0.012 -0.317,-0.025 -0.477,-0.025 -0.16,0 -0.319,0.012 -0.478,0.028 0.27,-0.028 0.209,-0.029 -0.02,0.026 -0.155,0.037 -0.306,0.1 -0.461,0.135 -0.219,0.05 0.284,-0.165 -0.039,0.014 -0.141,0.078 -0.284,0.149 -0.42,0.234 -0.1,0.065 -0.4,0.361 -0.112,0.066 -0.111,0.112 -0.234,0.224 -0.349,0.332 -0.289,0.274 0.136,-0.274 -0.089,0.1 -0.071,0.116 -0.145,0.228 -0.21,0.348 -0.042,0.076 -0.081,0.153 -0.117,0.232 0.073,-0.178 0.085,-0.2 0.036,-0.065 -0.034,0.144 -0.093,0.284 -0.13,0.428 -0.037,0.144 -0.1,0.537 -0.057,0.177 a 7.151,7.151 0 0 0 -0.02,1.095 c 0.015,0.43 -0.081,-0.256 0.024,0.2 0.034,0.151 0.063,0.3 0.1,0.453 0.047,0.18 0.1,0.357 0.163,0.533 0.046,0.131 0.165,0.38 0.042,0.123 a 8.061,8.061 0 0 0 0.549,0.955 c 0.316,0.483 -0.24,-0.257 0.136,0.187 0.121,0.144 0.245,0.286 0.374,0.423 a 9.512,9.512 0 0 0 0.756,0.719 c 0.087,0.075 0.337,0.272 0.116,0.105 0.151,0.115 0.308,0.223 0.467,0.328 a 10.066,10.066 0 0 0 0.978,0.572 c 0.166,0.084 0.334,0.166 0.5,0.238 -0.32,-0.135 0.111,0.031 0.2,0.063 a 2.0004011,2.0004011 0 1 1 -1.063,3.857 c -3.905,-1.377 -7.316,-4.781 -7.367,-9.125 a 6.674,6.674 0 0 1 2.651,-5.519 6.545,6.545 0 0 1 5.465,-1.048 2.0004011,2.0004011 0 1 1 -1.063,3.857 z"
     id="path272" />
  <path
     class="d"
     d="m 26.189654,128.462 a 21.944,21.944 0 0 1 -11.785,9 2.016,2.016 0 0 1 -2.461,-1.4 2.047,2.047 0 0 1 1.4,-2.46 c 0.517,-0.17 1.022,-0.366 1.531,-0.56 -0.449,0.171 0.055,-0.025 0.117,-0.053 l 0.293,-0.133 q 0.366,-0.169 0.723,-0.353 a 23.9,23.9 0 0 0 2.779,-1.729 c 0.244,-0.171 -0.363,0.294 0.038,-0.028 0.1,-0.083 0.208,-0.167 0.31,-0.251 0.206,-0.171 0.408,-0.345 0.606,-0.524 q 0.6,-0.54 1.148,-1.13 0.278,-0.3 0.541,-0.606 c 0.089,-0.1 0.176,-0.208 0.262,-0.314 0.033,-0.039 0.317,-0.4 0.15,-0.183 -0.167,0.217 0.113,-0.151 0.143,-0.192 0.082,-0.112 0.163,-0.224 0.242,-0.337 0.177,-0.252 0.346,-0.508 0.512,-0.766 a 2.0004048,2.0004048 0 1 1 3.454,2.019 z"
     id="path274" />
</svg>
