<?xml version="1.0" encoding="UTF-8" standalone="no"?>
<!-- Uploaded to: SVG Repo, www.svgrepo.com, Generator: SVG Repo Mixer Tools -->

<svg
   width="759.05255"
   height="678.34375"
   viewBox="0 0 242.89682 217.07"
   version="1.1"
   id="svg24460"
   sodipodi:docname="conference-live-online-svgrepo-com.svg"
   inkscape:version="1.2.2 (732a01da63, 2022-12-09)"
   xmlns:inkscape="http://www.inkscape.org/namespaces/inkscape"
   xmlns:sodipodi="http://sodipodi.sourceforge.net/DTD/sodipodi-0.dtd"
   xmlns="http://www.w3.org/2000/svg"
   xmlns:svg="http://www.w3.org/2000/svg">
  <defs
     id="defs24464" />
  <sodipodi:namedview
     id="namedview24462"
     pagecolor="#ffffff"
     bordercolor="#000000"
     borderopacity="0.25"
     inkscape:showpageshadow="2"
     inkscape:pageopacity="0.0"
     inkscape:pagecheckerboard="0"
     inkscape:deskcolor="#d1d1d1"
     showgrid="false"
     inkscape:zoom="0.523125"
     inkscape:cx="-177.77778"
     inkscape:cy="91.756272"
     inkscape:window-width="1920"
     inkscape:window-height="1017"
     inkscape:window-x="1912"
     inkscape:window-y="-8"
     inkscape:window-maximized="1"
     inkscape:current-layer="svg24460" />
  <path
     d="m 226.81683,8.48 c -3.17,-0.63 -206.319996,-0.52 -210.509996,0 -5.36,0.67 -7.6900001,5.48 -8.1800001,9.2 -0.4,3.09 0.4,82.93 0.59,120.93 H 234.57683 c 0.26,-40 0.62,-119 -0.29,-122 -1.33,-4.22 -4.08,-7.45 -7.47,-8.13 z"
     fill="#191919"
     id="path24440" />
  <path
     d="M 234.57683,146.61 H 8.6968339 a 8,8 0 0 1 -7.99999996,-8 c -0.06,-12.35 -0.19,-29.13 -0.31,-46.25 -0.45,-59.42 -0.49,-73.57 -0.21,-75.75 C 1.3168339,7.83 7.2468339,1.51 15.296834,0.5 c 3.48,-0.44 82.5,-0.49 106.629996,-0.5 103.38,0 105.44,0.39 106.44,0.59 6.2,1.24 11.27,6.33 13.56,13.63 0.57,1.82 1.44,4.58 0.66,124.4 a 8,8 0 0 1 -8.01,7.99 z m -217.919996,-16 H 226.65683 c 0.38,-62.46 0.32,-105.65 -0.17,-112.12 a 5.7,5.7 0 0 0 -1.26,-2.09 c -15.14,-0.48 -197.399996,-0.46 -207.999996,0 -0.66,0.19 -1,1.57 -1.12,2.13 -0.2,4.31 0.09,42.74 0.32,73.71 0.06,13.73 0.16,27.2 0.23,38.37 z"
     fill="#191919"
     id="path24442" />
  <path
     d="m 169.11683,197.42 c -0.77,-0.59 -22.51,-17.14 -23.17,-17.84 -0.66,-0.7 -8.51,-13.63 -8.7,-22.87 -0.29,-14.38 -37.999996,-16.05 -38.539996,0.18 -0.28,8.36 -7.12,20.73 -8,21.36 -0.88,0.63 -21.66,18.36 -22.19,19.17 -1,1 -0.57,10.57 -0.11,11 0.46,0.43 99.999996,0.94 100.829996,0.26 0.83,-0.68 0.67,-11.07 -0.12,-11.26 z"
     fill="#191919"
     id="path24444" />
  <path
     d="m 139.38683,217.04 c -6.31,0 -13.35,0 -20.72,0 -12.6,0 -25.179996,-0.13 -34.509996,-0.23 -18.94,-0.2 -18.94,-0.2 -21.41,-2.7 -2.47,-2.5 -2.74,-5.11 -2.82,-10.87 -0.08,-5.46 0.37,-8.91 2.93,-11.47 l 0.06,0.06 c 4.19,-4.22 17.85,-15.69 21.9,-19.08 1.67,-2.72 5.7,-11.27 5.86,-16.12 0.39,-11.65 11.239996,-19.45 26.939996,-19.31 16,0.1 27.37,8 27.59,19.24 0.11,5.37 4.68,14.41 6.67,17.59 1.62,1.28 6.54,5.1 20.79,16 l 1.07,0.82 a 8.68,8.68 0 0 1 3.45,5.46 41.25,41.25 0 0 1 0.54,7.76 c 0,4.45 -0.33,8.06 -3.33,10.64 -2.51,2.15 -2.51,2.15 -21.19,2.24 -3.97,-0.03 -8.65,-0.03 -13.82,-0.03 z m 27.28,-12.01 0.25,0.08 z m -89.849996,-4.28 c 18.63,0.29 65.219996,0.43 83.809996,0.25 -19.45,-14.84 -19.83,-15.25 -20.45,-15.91 -1.44,-1.54 -10.62,-16.33 -10.86,-28.19 -0.71,-1.68 -8.3,-4.65 -16.37,-3.17 -2.94,0.54 -6.12,1.85 -6.18,3.45 -0.29,8.91 -6.999996,24.26 -11.129996,27.46 -1.62,1.21 -13.57,11.41 -18.88,16.07 z m 9.26,-28.93 a 7.64,7.64 0 0 0 -0.69,0.57 z"
     fill="#191919"
     id="path24446" />
  <path
     d="m 8.8168339,156.32 c 0,3.76 1.8300001,10.14 8.1800001,12.26 5.4,1.81 206.099996,-0.14 209.829996,-0.91 a 9.85,9.85 0 0 0 7.49,-9 c 0.11,-1.21 0.87,-21 0.29,-22.14 -0.3,-0.57 -59.58,0.25 -117.24,0.29 -54.869996,0 -108.2599961,-0.7 -108.6399961,-0.28 -0.82,0.92 0.09,19.07 0.09,19.78 z"
     fill="#191919"
     id="path24448" />
  <path
     d="m 62.966834,177.34 c -45,0 -47.07,-0.68 -48.54,-1.17 C 5.0468339,173.03 0.81683394,164 0.81683394,156.41 c 0,-0.2 0,-0.64 0,-1.25 -0.79,-19.61 -0.51,-21.12 1.99999996,-23.92 2.51,-2.8 5.1,-2.72 8.5000001,-2.76 h 7.31 c 6.18,0 15,0.07 25.52,0.13 19.62,0.12 46.49,0.3 73.259996,0.27 24.79,0 50.11,-0.18 70.46,-0.32 13.57,-0.09 25.29,-0.16 33.57,-0.18 h 9.79 c 4.43,0.06 8.25,0.11 10.52,4.46 1,2 1.32,3.08 1,14.94 -0.12,5 -0.35,10.65 -0.43,11.61 a 17.92,17.92 0 0 1 -13.85,16.1 c -4.21,0.87 -101.7,1.56 -105.85,1.58 -25.529996,0.2 -44.899996,0.27 -59.649996,0.27 z m -43.92,-16.54 c 5.3,0.44 35.2,0.77 104.049996,0.29 51.68,-0.36 96.08,-1 102.24,-1.32 a 2.08,2.08 0 0 0 1,-1.77 c 0.09,-1.24 0.34,-8.18 0.44,-13.63 -8.41,0 -23.34,0.07 -38.87,0.17 -20.37,0.13 -45.71,0.3 -70.55,0.32 -26.819996,0 -53.719996,-0.15 -73.369996,-0.27 -11.07,-0.07 -21.17,-0.13 -27.57,-0.14 0,2.37 0.15,5.62 0.32,10.07 0,1 0.06,1.67 0.06,1.8 0,0.13 0.02,3.29 2.25,4.48 z"
     fill="#191919"
     id="path24450" />
  <path
     d="m 226.81683,8.98 c -3.17,-0.63 -206.319996,-0.52 -210.509996,0 -5.36,0.67 -7.6900001,5 -8.1800001,8.7 -0.4,3.09 0.4,82.43 0.59,120.43 H 234.57683 c 0.26,-40 0.62,-118.55 -0.29,-121.45 -1.33,-4.27 -4.08,-7 -7.47,-7.68 z"
     fill="#e83a2a"
     id="path24452"
     style="fill:#70ad47;fill-opacity:1" />
  <path
     d="m 169.11683,197.42 c -0.77,-0.59 -22.51,-17.14 -23.17,-17.84 -0.66,-0.7 -8.51,-13.63 -8.7,-22.87 -0.29,-14.38 -37.999996,-16.05 -38.539996,0.18 -0.28,8.36 -7.12,20.73 -8,21.36 -0.88,0.63 -21.66,18.36 -22.19,19.17 -1,1 -0.57,10.57 -0.11,11 0.46,0.43 99.999996,0.94 100.829996,0.26 0.83,-0.68 0.67,-11.07 -0.12,-11.26 z"
     fill="#ffffff"
     id="path24454" />
  <path
     d="m 8.8168339,156.32 c 0,3.76 1.8300001,10.14 8.1800001,12.26 5.4,1.81 206.099996,-0.14 209.829996,-0.91 a 9.85,9.85 0 0 0 7.49,-9 c 0.11,-1.21 0.87,-21 0.29,-22.14 -0.3,-0.57 -59.58,0.25 -117.24,0.29 -54.869996,0 -108.2599961,-0.7 -108.6399961,-0.28 -0.82,0.92 0.09,19.07 0.09,19.78 z"
     fill="#ffffff"
     id="path24456" />
  <path
     d="m 84.396834,54.04 c -5.11,5.75 -5.44,44.83 1.15,50.58 3.26,2.84 49.929996,2.63 52.229996,0 2.3,-2.63 2.47,-15.27 5.11,-12.64 2.64,2.63 10.88,9.69 13.35,11.49 2.47,1.8 5.4,2.54 6.43,-3.28 1,-5.58 0.66,-42.53 0.16,-46.47 -0.45,-3.59 -4.78,-3.28 -7.58,-0.66 -2.8,2.62 -11,9.69 -13,11.49 -2,1.8 -1.81,-9 -4.61,-11.33 -2.8,-2.33 -48.959996,-4 -53.239996,0.82 z"
     fill="#ffffff"
     id="path24458" />
</svg>
