<?xml version="1.0" encoding="UTF-8" standalone="no"?>
<!-- Uploaded to: SVG Repo, www.svgrepo.com, Generator: SVG Repo Mixer Tools -->

<svg
   width="760.78528"
   height="484.30325"
   viewBox="0 0 243.45129 154.97704"
   version="1.1"
   id="svg10982"
   sodipodi:docname="arrow-cloud-upload-svgrepo-com.svg"
   inkscape:version="1.2.2 (732a01da63, 2022-12-09)"
   xmlns:inkscape="http://www.inkscape.org/namespaces/inkscape"
   xmlns:sodipodi="http://sodipodi.sourceforge.net/DTD/sodipodi-0.dtd"
   xmlns="http://www.w3.org/2000/svg"
   xmlns:svg="http://www.w3.org/2000/svg">
  <defs
     id="defs10986" />
  <sodipodi:namedview
     id="namedview10984"
     pagecolor="#ffffff"
     bordercolor="#000000"
     borderopacity="0.25"
     inkscape:showpageshadow="2"
     inkscape:pageopacity="0.0"
     inkscape:pagecheckerboard="0"
     inkscape:deskcolor="#d1d1d1"
     showgrid="false"
     inkscape:zoom="1.04625"
     inkscape:cx="297.25209"
     inkscape:cy="274.31302"
     inkscape:window-width="1920"
     inkscape:window-height="1017"
     inkscape:window-x="1912"
     inkscape:window-y="-8"
     inkscape:window-maximized="1"
     inkscape:current-layer="svg10982" />
  <g
     id="g10972"
     transform="translate(-5.2624108,-40.492962)">
    <path
       d="M 214.18,101.88 C 206.39,55.2 132.27,22.37 95.32,77 A 11.71,11.71 0 0 1 82.6,81.77 C 67.4,77.63 53.25,87.7 50.16,101.53 a 11.66,11.66 0 0 1 -7.94,8.73 C 3.08,122 0.15,178.79 55.05,184.74 c 35.13,3.81 103.14,3.15 131,0.88 70.71,-5.77 61.79,-62 34.49,-75 a 11.75,11.75 0 0 1 -6.36,-8.74 z"
       fill="#191919"
       id="path10968" />
    <path
       d="m 124.65,195.47 c -25.56,0 -52.23,-0.8 -70.46,-2.77 C 20.76,189.07 7.09,168.77 5.45,151 c -2,-21.78 12.16,-41.67 34.46,-48.37 a 3.7,3.7 0 0 0 2.44,-2.82 34.82,34.82 0 0 1 16,-22.11 33.56,33.56 0 0 1 26.39,-3.63 3.74,3.74 0 0 0 4,-1.59 c 17.26,-25.6 44.06,-36.61 73.42,-30.2 30.66,6.69 55.29,30.65 59.91,58.28 a 3.78,3.78 0 0 0 1.94,2.87 c 17.25,8.21 27.57,29.05 24,48.48 -2.05,11.2 -12.14,37.67 -61.29,41.68 -13.98,1.14 -37.51,1.88 -62.07,1.88 z M 75.65,88.84 A 17.59,17.59 0 0 0 66.53,91.39 18.75,18.75 0 0 0 58,103.28 19.71,19.71 0 0 1 44.55,117.93 c -17.41,5.23 -24.19,20 -23.13,31.58 1.37,14.88 14.28,25.08 34.53,27.28 34.29,3.72 102.21,3.08 129.52,0.86 26.84,-2.19 43.92,-12.62 46.85,-28.62 2.26,-12.35 -4.39,-26 -15.15,-31.15 A 19.76,19.76 0 0 1 206.32,103.2 c -3.51,-21 -23.5,-40 -47.54,-45.28 -22.63,-4.94 -43.34,3.64 -56.8,23.53 A 19.69,19.69 0 0 1 80.5,89.49 18.26,18.26 0 0 0 75.69,88.84 Z"
       fill="#191919"
       id="path10970" />
  </g>
  <g
     id="g10976"
     transform="translate(-5.2624108,-40.492962)">
    <path
       d="M 214.18,101.88 C 206.39,55.2 132.27,22.37 95.32,77 A 11.71,11.71 0 0 1 82.6,81.77 C 67.4,77.63 53.25,87.7 50.16,101.53 a 11.66,11.66 0 0 1 -7.94,8.73 C 3.08,122 0.15,178.79 55.05,184.74 c 35.13,3.81 103.14,3.15 131,0.88 70.71,-5.77 61.79,-62 34.49,-75 a 11.75,11.75 0 0 1 -6.36,-8.74 z"
       fill="#ffffff"
       id="path10974" />
  </g>
  <g
     id="g10980"
     transform="translate(-5.2624108,-40.492962)"
     style="fill:#70ad47;fill-opacity:1">
    <path
       d="m 115.3,162.55 c 2.14,3.11 33.3,2.88 35,0.32 1.7,-2.56 -0.53,-39.25 1,-41.28 1.53,-2.03 11.92,-0.31 13.34,-2.64 1.81,-3 -28,-37.52 -31.59,-37.95 -3.59,-0.43 -34.72,35.54 -33.33,38 2.16,3.77 12.59,1.23 14.3,3.36 1.71,2.13 -1.02,36.78 1.28,40.19 z"
       fill="#e83a2a"
       id="path10978"
       style="fill:#70ad47;fill-opacity:1" />
  </g>
</svg>
