<?xml version="1.0" encoding="UTF-8" standalone="no"?>
<!-- Uploaded to: SVG Repo, www.svgrepo.com, Generator: SVG Repo Mixer Tools -->

<svg
   fill="#000000"
   width="666.66754"
   height="664.00067"
   viewBox="0 0 20.000026 19.92002"
   version="1.1"
   id="svg1763"
   sodipodi:docname="facebook-svgrepo-com.svg"
   inkscape:version="1.2.2 (732a01da63, 2022-12-09)"
   xmlns:inkscape="http://www.inkscape.org/namespaces/inkscape"
   xmlns:sodipodi="http://sodipodi.sourceforge.net/DTD/sodipodi-0.dtd"
   xmlns="http://www.w3.org/2000/svg"
   xmlns:svg="http://www.w3.org/2000/svg">
  <defs
     id="defs1767" />
  <sodipodi:namedview
     id="namedview1765"
     pagecolor="#ffffff"
     bordercolor="#000000"
     borderopacity="0.25"
     inkscape:showpageshadow="2"
     inkscape:pageopacity="0.0"
     inkscape:pagecheckerboard="0"
     inkscape:deskcolor="#d1d1d1"
     showgrid="false"
     inkscape:zoom="0.73981047"
     inkscape:cx="27.033951"
     inkscape:cy="268.98781"
     inkscape:window-width="1920"
     inkscape:window-height="1017"
     inkscape:window-x="1912"
     inkscape:window-y="-8"
     inkscape:window-maximized="1"
     inkscape:current-layer="svg1763" />
  <path
     d="M 10,0 C 4.5,0 0,4.49 0,10.02002 c 0,5 3.66,9.15 8.44,9.9 v -7 H 5.9 v -2.9 H 8.44 V 7.81 c 0,-2.51 1.49,-3.89 3.78,-3.89 1.09,0 2.23,0.19 2.23,0.19 v 2.47 h -1.26 c -1.24,0 -1.63,0.77 -1.63,1.56002 v 1.88 h 2.78 l -0.45,2.9 h -2.33 v 7 c 2.3564,-0.3722 4.5022,-1.5745 6.0499,-3.39 1.5477,-1.8154 2.3955,-4.1244 2.3901,-6.51 C 20,4.49 15.5,0 10,0 Z"
     id="path1761"
     style="fill:#7a7a7a;fill-opacity:1" />
</svg>
