<?xml version="1.0" encoding="UTF-8" standalone="no"?>
<!-- Uploaded to: SVG Repo, www.svgrepo.com, Generator: SVG Repo Mixer Tools -->

<svg
   width="746.15271"
   height="559.71875"
   viewBox="0 0 238.76887 179.11"
   version="1.1"
   id="svg2383"
   sodipodi:docname="game.svg"
   inkscape:version="1.2.2 (732a01da63, 2022-12-09)"
   xmlns:inkscape="http://www.inkscape.org/namespaces/inkscape"
   xmlns:sodipodi="http://sodipodi.sourceforge.net/DTD/sodipodi-0.dtd"
   xmlns="http://www.w3.org/2000/svg"
   xmlns:svg="http://www.w3.org/2000/svg">
  <defs
     id="defs2387" />
  <sodipodi:namedview
     id="namedview2385"
     pagecolor="#ffffff"
     bordercolor="#000000"
     borderopacity="0.25"
     inkscape:showpageshadow="2"
     inkscape:pageopacity="0.0"
     inkscape:pagecheckerboard="0"
     inkscape:deskcolor="#d1d1d1"
     showgrid="false"
     inkscape:zoom="0.36990524"
     inkscape:cx="556.89939"
     inkscape:cy="27.033951"
     inkscape:window-width="1920"
     inkscape:window-height="1017"
     inkscape:window-x="1912"
     inkscape:window-y="-8"
     inkscape:window-maximized="1"
     inkscape:current-layer="svg2383" />
  <path
     d="m 9.3997042,35.43 c -2.3,3.07 -1.51,73.57 0,76 1.5099998,2.43 105.8299958,59.7 108.5399958,59.7 2.71,0 111.26,-62.11 111.86,-64.22 0.6,-2.11 1.81,-67.54 0,-69 -1.81,-1.46 -54.22,-29.33 -57.54,-29.33 -3.32,0 -50.65,26.53 -53.37,26.53 C 116.1697,35.11 69.749704,8 66.129704,8 c -3.62,0 -54.88,25.02 -56.7299998,27.43 z"
     fill="#191919"
     id="path2367" />
  <path
     d="m 117.9897,179.11 c -2.48,0 -4.11,0 -58.579996,-29.93 C 4.9397042,119.25 3.9997042,117.8 2.6597042,115.65 c -1.2,-1.92 -2.43999999,-3.9 -2.63999999,-41.94 -0.21,-38.76 1.28999999,-40.76 2.99999999,-43.08 1.2,-1.59 2.55,-3.4 30.5699998,-17 28.02,-13.6 30.64,-13.63 32.54,-13.63 3.33,0 6.33,1.28 33.23,16 6.699996,3.67 15.429996,8.45 19.589996,10.51 4.35,-2.07 13.65,-7 20.78,-10.73 26.67,-14.06 29.37,-15.2 32.53,-15.2 2.32,0 4.16,0 33,15 4.54,2.35 27.31,14.18 29.67,16.15 3.29,2.74 3.5,6 3.73,17.11 0.15,7.47 0.12,16.85 0.06,23.41 -0.11,12.58 -0.42,34.1 -1.21,36.87 -1,3.33 -3.11,4.69 -8.31,7.95 -3,1.87 -7.23,4.44 -12.65,7.66 -9.9,5.88 -23.36,13.71 -37.9,22 -14.25,8.21 -27.88,15.85 -38.25,21.64 -19.38,10.74 -20,10.74 -22.41,10.74 z M 16.849704,106.8 c 14.41,8.86 85.679996,48.05 101.069996,55.58 15.71,-8 89.25,-50.18 104.23,-59.78 0.52,-11.66 1,-48.65 0.35,-59.82 -10.07,-5.62 -41.48,-22 -50.19,-25.72 -4.85,2.19 -16.82,8.5 -25.12,12.87 -24.1,12.7 -25.4,13.19 -28.3,13.19 -2.9,0 -4.19,-0.48 -27.219996,-13.09 -8.54,-4.67 -20.92,-11.45 -25.74,-13.64 -8.53,3.29 -40.18,18.59 -49.28,23.84 -1.09,11.6 -0.74,54.56 0.2,66.57 z"
     fill="#191919"
     id="path2369" />
  <path
     d="m 9.3997042,35.43 c -2.3,3.07 -1.51,73.57 0,76 1.5099998,2.43 105.8299958,59.7 108.5399958,59.7 2.71,0 111.26,-62.11 111.86,-64.22 0.6,-2.11 1.81,-67.54 0,-69 -1.81,-1.46 -54.22,-29.33 -57.54,-29.33 -3.32,0 -50.65,26.53 -53.37,26.53 C 116.1697,35.11 69.749704,8 66.129704,8 c -3.62,0 -54.88,25.02 -56.7299998,27.43 z"
     fill="#e83a2a"
     id="path2371"
     style="fill:#70ad47;fill-opacity:1" />
  <path
     d="m 181.1397,58.84 c 0,6.08 -6,12.51 -10.77,11.92 -5.5,-0.69 -10.54,-5.61 -10.54,-11.69 0,-6.08 4.24,-10.1 10.31,-10.31 6.64,-0.23 11,4 11,10.08 z"
     fill="#ffffff"
     id="path2375" />
  <path
     d="m 159.8197,100.71 c 0,-6.08 6,-12.51 10.77,-11.92 5.5,0.69 10.54,5.61 10.54,11.69 0,6.08 -4.24,10.1 -10.31,10.31 -6.64,0.23 -11,-4.01 -11,-10.08 z"
     fill="#ffffff"
     id="path2377" />
  <path
     d="m 191.3997,90.43 c -6.08,0 -12.51,-6 -11.92,-10.77 0.69,-5.5 5.61,-10.54 11.69,-10.54 6.08,0 10.1,4.24 10.31,10.31 0.25,6.64 -3.99,11 -10.08,11 z"
     fill="#ffffff"
     id="path2379" />
  <path
     d="m 149.5497,69.12 c 6.08,0 12.51,6 11.92,10.77 -0.69,5.5 -5.61,10.54 -11.69,10.54 -6.08,0 -10.1,-4.24 -10.31,-10.31 -0.23,-6.65 4,-11 10.08,-11 z"
     fill="#ffffff"
     id="path2381" />
  <rect
     style="fill:#ffffff;fill-opacity:1;stroke:#ffffff;stroke-width:0;stroke-linejoin:bevel;stroke-miterlimit:4.2;stroke-dashoffset:26.28"
     id="rect3017"
     width="56.853226"
     height="15.455337"
     x="37.720921"
     y="74.109665" />
  <rect
     style="fill:#ffffff;fill-opacity:1;stroke:#ffffff;stroke-width:0;stroke-linejoin:bevel;stroke-miterlimit:4.2;stroke-dashoffset:26.28"
     id="rect3017-1"
     width="56.853226"
     height="16.916784"
     x="-110.26395"
     y="-74.605927"
     transform="matrix(0,-1,-1,0,0,0)" />
</svg>
