<?xml version="1.0" encoding="UTF-8" standalone="no"?>
<!-- Uploaded to: SVG Repo, www.svgrepo.com, Generator: SVG Repo Mixer Tools -->

<svg
   version="1.1"
   id="Layer_1"
   viewBox="0 0 443.16796 443.16796"
   xml:space="preserve"
   width="457.52274"
   height="457.52274"
   sodipodi:docname="hiker-walk-svgrepo-com.svg"
   inkscape:version="1.2.2 (732a01da63, 2022-12-09)"
   xmlns:inkscape="http://www.inkscape.org/namespaces/inkscape"
   xmlns:sodipodi="http://sodipodi.sourceforge.net/DTD/sodipodi-0.dtd"
   xmlns="http://www.w3.org/2000/svg"
   xmlns:svg="http://www.w3.org/2000/svg"><defs
   id="defs49" /><sodipodi:namedview
   id="namedview47"
   pagecolor="#ffffff"
   bordercolor="#000000"
   borderopacity="0.25"
   inkscape:showpageshadow="2"
   inkscape:pageopacity="0.0"
   inkscape:pagecheckerboard="0"
   inkscape:deskcolor="#d1d1d1"
   showgrid="false"
   inkscape:zoom="1.1559539"
   inkscape:cx="171.28711"
   inkscape:cy="290.66904"
   inkscape:window-width="1920"
   inkscape:window-height="1017"
   inkscape:window-x="1912"
   inkscape:window-y="-8"
   inkscape:window-maximized="1"
   inkscape:current-layer="Layer_1" />
















<g
   id="g44"
   transform="matrix(0.71753241,0,0,0.71753241,40.583085,40.98781)">
	<polygon
   style="fill:#ffd6cf"
   points="261.44,126.639 266.854,90.159 236.724,88.235 230.72,121.448 "
   id="polygon2" />
	<polygon
   style="opacity:0.32;fill:#831232"
   points="263.789,113.234 266.854,90.159 236.935,87.033 233.081,107.974 "
   id="polygon4" />
	<rect
   x="390.25299"
   y="81.468002"
   style="fill:#998269"
   width="20.313999"
   height="175.01401"
   id="rect6" />
	<rect
   x="390.25299"
   y="221.817"
   style="fill:#998269"
   width="20.808001"
   height="274.11899"
   id="rect8" />
	<rect
   x="390.25299"
   y="210.58501"
   style="fill:#836f5a"
   width="20.313999"
   height="45.897999"
   id="rect10" />
	<path
   style="fill:#347642"
   d="m 86.223,411.571 68.329,-65.439 24.642,-84.343 h 37.709 l -27.157,98.642 c -0.725,2.707 -2.027,5.107 -3.718,7.136 -0.634,0.917 -1.343,1.797 -2.158,2.612 l -80.076,77.462 z"
   id="path12" />
	<g
   style="opacity:0.53"
   id="g16">
		<polygon
   style="fill:#2b5448"
   points="179.194,261.789 169.683,294.342 207.941,294.342 216.903,261.789 "
   id="polygon14" />
	</g>
	<path
   style="fill:#ffd6cf"
   d="M 290.966,8.628 C 286.615,3.953 280.721,1.252 274.369,1.024 L 246.345,0.016 c -13.173,-0.461 -24.232,9.841 -24.705,22.99 l -1.765,49.08 c -0.229,6.352 2.042,12.425 6.393,17.101 4.351,4.676 10.245,7.376 16.597,7.605 l 28.023,1.008 c 0.292,0.011 0.583,0.016 0.874,0.016 6.033,0 11.767,-2.257 16.228,-6.408 4.675,-4.351 7.376,-10.246 7.604,-16.597 l 1.766,-49.08 c 0.228,-6.355 -2.042,-12.428 -6.394,-17.103 z"
   id="path18" />
	<path
   style="fill:#aa6518"
   d="m 157.303,87.679 -23.692,-5.615 c -2.445,-0.579 -4.875,1.01 -5.325,3.481 l -12.838,70.506 c -0.566,3.108 1.411,6.112 4.489,6.823 l 23.25,5.365 z"
   id="path20" />
	<path
   style="fill:#ffb057"
   d="m 176.825,219.612 -38.613,-6.767 c -5.208,-0.913 -8.722,-5.92 -7.81,-11.129 L 154.262,65.56 c 0.913,-5.208 5.92,-8.722 11.129,-7.81 l 38.613,6.767 c 5.208,0.913 8.722,5.92 7.81,11.129 l -23.86,136.156 c -0.913,5.208 -5.921,8.723 -11.129,7.81 z"
   id="path22" />
	<path
   style="opacity:0.48;fill:#aa6518"
   d="m 204.004,64.518 -1.495,-0.262 -23.391,133.483 c -0.913,5.208 -5.92,8.722 -11.128,7.81 l -37.118,-6.505 -0.468,2.672 c -0.913,5.208 2.602,10.216 7.81,11.128 l 38.613,6.767 c 5.208,0.913 10.216,-2.602 11.129,-7.81 l 23.86,-136.156 c 0.91,-5.206 -2.604,-10.214 -7.812,-11.127 z"
   id="path24" />
	<g
   id="g28">
		<path
   style="fill:#c71c4b"
   d="M 295.491,15.376 C 294.422,12.927 292.933,10.647 291.055,8.628 286.704,3.953 280.81,1.252 274.458,1.024 L 246.434,0.016 c -13.173,-0.461 -24.232,9.841 -24.705,22.99 l -1.045,29.051 c 11.485,-2.103 52.195,-11.13 74.807,-36.681 z"
   id="path26" />
	</g>
	<path
   style="fill:#71ce93"
   d="m 273.743,154.929 c 3.03,-17.293 -8.639,-33.921 -25.932,-36.952 l -32.653,-5.722 c -5.208,-0.913 -10.216,2.602 -11.129,7.81 l -24.835,141.723 31.074,5.445 c 0.178,0.361 0.347,0.724 0.551,1.077 l 51.96,91.727 v 101.154 l 37.734,4.384 V 356.311 c 0,-1.152 -0.121,-2.276 -0.321,-3.373 -0.239,-2.63 -1.015,-5.248 -2.417,-7.675 l -43.828,-77.372 12.087,-68.975 z"
   id="path30" />
	<polygon
   style="fill:#71ce93"
   points="220.917,153.798 292.667,225.548 293.121,225.094 293.147,225.705 383.342,221.817 381.836,186.9 306.685,190.14 249.817,135.635 "
   id="polygon32" />
	<path
   style="fill:#d8edde"
   d="m 119.415,483.709 -52.663,-52.663 19.475,-19.475 39.956,50.461 c 3.735,4.717 3.356,11.48 -0.883,15.75 z"
   id="path34" />
	<polygon
   style="fill:#ffd6cf"
   points="381.836,186.9 429.184,184.502 415.439,221.026 383.342,221.817 "
   id="polygon36" />
	<path
   style="fill:#3f8e50"
   d="m 300.193,352.938 c -0.239,-2.63 -1.015,-5.248 -2.417,-7.675 l -43.828,-77.372 4.669,-26.645 -73.631,-12.507 -5.792,33.049 31.074,5.445 c 0.178,0.361 0.347,0.724 0.551,1.077 l 51.96,91.727 v 101.154 l 37.734,9.553 V 356.311 c 0.001,-1.152 -0.12,-2.276 -0.32,-3.373 z"
   id="path38" />
	<circle
   style="fill:#ffd6cf"
   cx="250.33501"
   cy="48.907001"
   r="14.02"
   id="circle40" />
	<path
   style="fill:#d8edde"
   d="M 337.257,488.734 H 262.78 v -27.541 l 63.934,7.428 c 5.976,0.694 10.49,5.745 10.512,11.761 z"
   id="path42" />
</g></svg>
