<?xml version="1.0" encoding="UTF-8" standalone="no"?>
<!-- Uploaded to: SVG Repo, www.svgrepo.com, Generator: SVG Repo Mixer Tools -->

<svg
   fill="#000000"
   width="560.07507"
   height="567.09814"
   viewBox="0 0 22.403003 22.683926"
   version="1.1"
   id="svg6"
   sodipodi:docname="key-svgrepo-com.svg"
   inkscape:version="1.2.2 (732a01da63, 2022-12-09)"
   xmlns:inkscape="http://www.inkscape.org/namespaces/inkscape"
   xmlns:sodipodi="http://sodipodi.sourceforge.net/DTD/sodipodi-0.dtd"
   xmlns="http://www.w3.org/2000/svg"
   xmlns:svg="http://www.w3.org/2000/svg"
   xmlns:rdf="http://www.w3.org/1999/02/22-rdf-syntax-ns#"
   xmlns:cc="http://creativecommons.org/ns#"
   xmlns:dc="http://purl.org/dc/elements/1.1/">
  <defs
     id="defs10" />
  <sodipodi:namedview
     id="namedview8"
     pagecolor="#ffffff"
     bordercolor="#000000"
     borderopacity="0.25"
     inkscape:showpageshadow="2"
     inkscape:pageopacity="0.0"
     inkscape:pagecheckerboard="0"
     inkscape:deskcolor="#d1d1d1"
     showgrid="false"
     inkscape:zoom="0.523125"
     inkscape:cx="-198.80526"
     inkscape:cy="307.76583"
     inkscape:window-width="1920"
     inkscape:window-height="1017"
     inkscape:window-x="1912"
     inkscape:window-y="-8"
     inkscape:window-maximized="1"
     inkscape:current-layer="svg6" />
  <title
     id="title2">key</title>
  <path
     d="m 9.9340022,14.964927 -1.219,-1.25 c 0,0 -3.469,1.344 -6.969,-2.125 -2.969,-2.9690003 -1.65599996,-7.6250003 0.281,-9.5310003 2.063,-2.06300002 6.469,-3.313 9.6879998,-0.094 3.219,3.219 1.844,7.031 1.844,7.031 l 8.844,8.8130003 -0.25,4.594 -4.5,0.281 -0.25,-2.25 -2.344,-0.281 -0.219,-2.344 -2.313,-0.313 -0.344,-2.25 z m -6.688,-11.6560003 c -1.375,1.375 -1.75,3.219 -0.844,4.094 0.906,0.906 2.719,0.531 4.094,-0.844 1.375,-1.375 1.781,-3.219 0.875,-4.094 -0.875,-0.906 -2.75,-0.531 -4.125,0.844 z m 18.0939998,16.2500003 0.063,-1.313 -8.406,-8.4060003 -0.688,0.6880003 z"
     id="path4"
     style="fill:#ffffff" />
  <metadata
     id="metadata239">
    <rdf:RDF>
      <cc:Work
         rdf:about="">
        <dc:title>key</dc:title>
      </cc:Work>
    </rdf:RDF>
  </metadata>
</svg>
