<?xml version="1.0" encoding="UTF-8" standalone="no"?>
<!-- Uploaded to: SVG Repo, www.svgrepo.com, Generator: SVG Repo Mixer Tools -->

<svg
   fill="#000000"
   width="801.92566"
   height="550.26923"
   viewBox="0 0 16.038513 11.005385"
   version="1.1"
   id="svg4"
   sodipodi:docname="list.svg"
   inkscape:version="1.2.2 (732a01da63, 2022-12-09)"
   xmlns:inkscape="http://www.inkscape.org/namespaces/inkscape"
   xmlns:sodipodi="http://sodipodi.sourceforge.net/DTD/sodipodi-0.dtd"
   xmlns="http://www.w3.org/2000/svg"
   xmlns:svg="http://www.w3.org/2000/svg">
  <defs
     id="defs8" />
  <sodipodi:namedview
     id="namedview6"
     pagecolor="#ffffff"
     bordercolor="#000000"
     borderopacity="0.25"
     inkscape:showpageshadow="2"
     inkscape:pageopacity="0.0"
     inkscape:pagecheckerboard="0"
     inkscape:deskcolor="#d1d1d1"
     showgrid="false"
     inkscape:zoom="0.523125"
     inkscape:cx="84.109916"
     inkscape:cy="462.60454"
     inkscape:window-width="1920"
     inkscape:window-height="1017"
     inkscape:window-x="1912"
     inkscape:window-y="-8"
     inkscape:window-maximized="1"
     inkscape:current-layer="svg4" />
  <path
     d="M 3.8385127,0.5503849 H 16.038513 v 1.26 H 3.8385127 Z m 0,4.29 H 16.038513 v 1.26 H 3.8385127 Z m 0,4.36 H 16.038513 V 10.460385 H 3.8385127 Z m -2.55,-9.19999999715 a 1.22,1.22 0 0 1 1.25,1.17999999715 1.22,1.22 0 0 1 -1.25,1.17 1.22,1.22 0 0 1 -1.25000003,-1.17 A 1.22,1.22 0 0 1 1.2885127,3.8490285e-4 Z m 0,4.29999999715 a 1.18,1.18 0 1 1 0,2.35 1.18,1.18 0 1 1 0,-2.35 z m 0,4.35 a 1.18,1.18 0 1 1 0,2.3500001 1.18,1.18 0 1 1 0,-2.3500001 z"
     id="path2"
     style="fill:#ffffff" />
</svg>
