<?xml version="1.0" encoding="UTF-8" standalone="no"?>
<!-- Uploaded to: SVG Repo, www.svgrepo.com, Generator: SVG Repo Mixer Tools -->

<svg
   width="742.22223"
   height="553.26129"
   viewBox="0 0 237.51111 177.04361"
   version="1.1"
   id="svg11853"
   sodipodi:docname="camera-recorder-upload-svgrepo-com.svg"
   xml:space="preserve"
   inkscape:version="1.2.2 (732a01da63, 2022-12-09)"
   xmlns:inkscape="http://www.inkscape.org/namespaces/inkscape"
   xmlns:sodipodi="http://sodipodi.sourceforge.net/DTD/sodipodi-0.dtd"
   xmlns="http://www.w3.org/2000/svg"
   xmlns:svg="http://www.w3.org/2000/svg"><defs
     id="defs11857" /><sodipodi:namedview
     id="namedview11855"
     pagecolor="#ffffff"
     bordercolor="#000000"
     borderopacity="0.25"
     inkscape:showpageshadow="2"
     inkscape:pageopacity="0.0"
     inkscape:pagecheckerboard="0"
     inkscape:deskcolor="#d1d1d1"
     showgrid="false"
     inkscape:zoom="0.73981047"
     inkscape:cx="454.17038"
     inkscape:cy="121.65278"
     inkscape:window-width="1920"
     inkscape:window-height="1017"
     inkscape:window-x="1912"
     inkscape:window-y="-8"
     inkscape:window-maximized="1"
     inkscape:current-layer="g12789" /><g
     id="g11845"
     transform="translate(-9.2088041,-39.466385)"><path
       d="M 30.36,57 C 48.78,43.88 217.81,43.66 229.82,60.38 241.83,77.1 243.32,190.29 224.04,199.49 204.76,208.69 45.65,214.58 30.36,198 15.07,181.42 10.82,71 30.36,57 Z"
       fill="#191919"
       id="path11841" /><path
       d="m 113.43,216.51 c -76.9,0 -85.89,-9.75 -89,-13.06 C 18.15,196.64 13.64,180.85 11.05,156.52 8.78,135.25 8.6,111.24 10.56,92.29 12.89,69.76 17.83,56.1 25.67,50.51 L 30.36,57 25.72,50.48 c 3.61,-2.57 11.8,-6.28 41.2,-8.81 18.61,-1.6 41.92,-2.38 65.64,-2.17 24.44,0.24 47.34,1.5 64.56,3.5 29,3.46 36.07,8.36 39.19,12.71 7.56,10.53 9.63,40.5 10.19,57.42 0.92,27.92 -1.08,54.55 -5.37,71.22 -3.16,12.32 -7.5,19.42 -13.66,22.35 -13.31,6.35 -68.1,9.27 -101.68,9.69 q -6.44,0.12 -12.36,0.12 z M 35,63.55 c -0.24,0.17 -5.79,4.42 -8.48,30.39 -1.85,17.9 -1.67,40.66 0.49,60.88 2.64,24.79 7,35.41 9.23,37.77 4,3.55 31.52,8.64 90.67,7.82 51.32,-0.71 87.23,-5.14 93.61,-8.08 0.33,-0.27 3.92,-3.49 6.83,-20 3,-16.77 4.07,-40.75 2.94,-64.15 -1.24,-25.66 -4.69,-39.52 -6.82,-42.9 -4.69,-3.67 -33.93,-9.48 -93.81,-9.8 C 73.3,55.19 39.85,60.1 35,63.48 Z"
       fill="#191919"
       id="path11843" /></g><g
     id="g11849"
     style="fill:#70ad47;fill-opacity:1"
     transform="translate(-9.2088041,-39.466385)"><path
       d="M 30.36,57 C 48.78,43.88 217.81,43.66 229.82,60.38 241.83,77.1 243.32,190.29 224.04,199.49 204.76,208.69 45.65,214.58 30.36,198 15.07,181.42 10.82,71 30.36,57 Z"
       fill="#e83a2a"
       id="path11847"
       style="fill:#70ad47;fill-opacity:1" /></g><g
     id="g12789"
     transform="matrix(0.46252946,0,0,0.46252946,59.587425,29.327529)"><path
       d="m 40.59,49.24 c -1.28,0 -33.08,24.32 -33.08,76 0,53.23 30.89,81.28 32.64,81.49 1.75,0.21 16.43,-13.58 16.43,-14.68 0,-1.1 -26.95,-20.59 -26.95,-65.28 0,-44.69 26.73,-61.33 26.73,-62.85 C 56.36,63 44.1,49.24 40.59,49.24 Z"
       fill="#191919"
       id="path12738" /><path
       d="m 40.29,214.77 a 9.09,9.09 0 0 1 -1.14,-0.07 c -1.64,-0.2 -4.12,-0.51 -10.79,-7.93 A 101.48,101.48 0 0 1 16.25,189.9 C 8.62,176.73 -0.49,154.83 -0.49,125.26 -0.49,96.4 8.94,75.75 16.85,63.52 A 89.8,89.8 0 0 1 29.29,48.13 c 7,-6.88 9.5,-6.88 11.3,-6.88 3.49,0 7.2,1.57 14.9,9.4 8.87,9 8.87,10.89 8.87,13.28 0,3.72 -2.18,5.75 -4.29,7.71 -5.55,5.17 -22.44,20.89 -22.44,55.16 0,23.42 7.81,43 23.21,58.11 1.75,1.72 3.74,3.67 3.74,7.18 0,2.89 0,4.81 -12.22,15.59 -5.72,5.04 -8.69,7.09 -12.07,7.09 z M 41.13,59 c -7.46,7.05 -25.62,28.17 -25.62,66.26 0,39.53 17.7,63 25.27,71.28 1.54,-1.33 3.28,-2.92 4.85,-4.4 -15.92,-17.6 -24,-39.56 -24,-65.35 0,-25.52 8.06,-46.81 24,-63.36 -1.48,-1.54 -3.1,-3.16 -4.5,-4.43 z"
       fill="#191919"
       id="path12740" /><path
       d="m 74.77,78.6 c -1.55,0 -21.69,12.71 -22.13,46.88 -0.45,35.05 19.72,52.36 21,52.58 1.28,0.22 14.24,-13.36 14.24,-14.46 0,-1.1 -15.48,-11.84 -14.68,-35.49 C 74.08,102.26 88.1,93.5 88.1,92.4 88.1,91.3 76.74,78.6 74.77,78.6 Z"
       fill="#191919"
       id="path12742" /><path
       d="m 73.73,186.06 a 8.38,8.38 0 0 1 -1.38,-0.12 C 65,184.72 55.69,169.04 55.6,168.89 c -5.14,-8.72 -11.22,-23.36 -11,-43.52 0.26,-19.94 6.73,-33.19 12.12,-40.78 3.43,-4.84 11.62,-14 18,-14 3.75,0 6.73,2 13.27,9 7.33,7.85 8.1,9.92 8.1,12.77 0,3.51 -2.09,5.59 -3.47,7 -3,3 -10.82,10.79 -11.43,29 a 36.5,36.5 0 0 0 11.21,28.19 c 1.56,1.61 3.51,3.61 3.51,7 0,3.39 -1.46,5.38 -6.84,11.14 a 116.63,116.63 0 0 1 -8.33,8.18 c -1.34,1.19 -3.74,3.19 -7.01,3.19 z m 0.68,-97.53 c -4.83,4.5 -13.5,15.57 -13.77,37 -0.28,21.97 8.26,35.61 13.36,41.79 1.12,-1.12 2.3,-2.35 3.38,-3.5 a 51.81,51.81 0 0 1 -12.14,-36 C 65.88,109 72.8,97.82 77.69,91.99 76.63,90.83 75.47,89.6 74.41,88.53 Z"
       fill="#191919"
       id="path12744" /><path
       d="m 215.41,49.24 c 1.28,0 33.08,24.32 33.08,76 0,53.23 -30.89,81.28 -32.64,81.49 -1.75,0.21 -16.43,-13.58 -16.43,-14.68 0,-1.1 26.95,-20.59 26.95,-65.28 0,-44.69 -26.73,-61.36 -26.73,-62.87 0,-0.9 12.26,-14.66 15.77,-14.66 z"
       fill="#191919"
       id="path12746" /><path
       d="m 215.7,214.77 c -3.38,0 -6.34,-2 -12.06,-7.1 -12.22,-10.79 -12.22,-12.7 -12.22,-15.59 0,-3.5 2,-5.45 3.74,-7.18 15.4,-15.14 23.21,-34.69 23.21,-58.11 0,-34.27 -16.89,-50 -22.44,-55.16 -2.11,-2 -4.29,-4 -4.29,-7.71 0,-2.39 0,-4.27 8.87,-13.28 7.71,-7.83 11.41,-9.4 14.9,-9.4 1.79,0 4.25,0 11.3,6.88 a 89.8,89.8 0 0 1 12.44,15.39 c 7.91,12.24 17.34,32.88 17.34,61.74 0,29.57 -9.1,51.47 -16.74,64.64 a 101.48,101.48 0 0 1 -12.11,16.86 c -6.67,7.41 -9.15,7.72 -10.8,7.93 a 9,9 0 0 1 -1.14,0.09 z m -5.33,-22.62 c 1.56,1.48 3.31,3.07 4.85,4.4 7.57,-8.23 25.27,-31.75 25.27,-71.28 0,-38.09 -18.16,-59.21 -25.62,-66.26 -1.4,1.27 -3,2.89 -4.48,4.43 15.91,16.55 24,37.84 24,63.36 -0.03,25.78 -8.09,47.74 -24.02,65.34 z"
       fill="#191919"
       id="path12748" /><path
       d="m 181.23,78.6 c 1.55,0 21.69,12.71 22.13,46.88 0.45,35.05 -19.72,52.36 -21,52.58 -1.28,0.22 -14.24,-13.36 -14.24,-14.46 0,-1.1 15.48,-11.84 14.68,-35.49 -0.88,-25.85 -14.9,-34.61 -14.9,-35.71 0,-1.1 11.36,-13.8 13.33,-13.8 z"
       fill="#191919"
       id="path12750" /><path
       d="m 182.27,186.06 c -3.3,0 -5.66,-2 -7,-3.15 a 116.63,116.63 0 0 1 -8.33,-8.18 c -5.38,-5.77 -6.84,-7.8 -6.84,-11.14 0,-3.34 1.95,-5.44 3.51,-7 a 36.5,36.5 0 0 0 11.17,-28.17 c -0.62,-18.22 -8.47,-26.06 -11.43,-29 -1.38,-1.38 -3.47,-3.46 -3.47,-7 0,-2.85 0.77,-4.92 8.1,-12.77 6.54,-7 9.52,-9 13.27,-9 6.39,0 14.57,9.16 18,14 5.39,7.6 11.86,20.84 12.12,40.78 0.26,20.16 -5.82,34.79 -11,43.52 -0.09,0.16 -9.41,15.83 -16.75,17.05 a 8.38,8.38 0 0 1 -1.35,0.06 z m -3.65,-22.25 c 1.08,1.15 2.26,2.38 3.38,3.5 5.11,-6.17 13.64,-19.82 13.36,-41.74 -0.27,-21.48 -8.94,-32.54 -13.77,-37 -1.06,1.07 -2.22,2.3 -3.28,3.47 4.9,5.87 11.81,17 12.45,35.83 a 51.81,51.81 0 0 1 -12.14,35.95 z"
       fill="#191919"
       id="path12752" /><path
       d="m 151.07,128.11 c 0,15.17 -10.17,28.47 -26.79,27.47 -14.77,-0.89 -26.79,-12.3 -26.79,-27.47 0,-15.17 10.76,-27.07 26.79,-27.47 15.83,-0.39 26.79,12.3 26.79,27.47 z"
       fill="#191919"
       id="path12754" /><path
       d="m 126.06,163.63 q -1.12,0 -2.27,-0.07 c -19.56,-1.18 -34.31,-16.42 -34.31,-35.45 0,-20 14.55,-35 34.59,-35.47 a 33.24,33.24 0 0 1 24.35,9.36 36.5,36.5 0 0 1 10.65,26.09 c 0,10.56 -4,20.4 -11,27 a 31.37,31.37 0 0 1 -22.01,8.54 z m -1.07,-55 h -0.52 c -11.18,0.28 -19,8.29 -19,19.47 0,10.44 8.29,18.82 19.27,19.48 a 15.85,15.85 0 0 0 12.33,-4.15 c 3.8,-3.58 6,-9.17 6,-15.34 A 20.43,20.43 0 0 0 137.25,113.45 17.14,17.14 0 0 0 125,108.63 Z"
       fill="#191919"
       id="path12756" /><path
       d="m 40.59,49.24 c -1.28,0 -33.08,24.32 -33.08,76 0,53.23 30.89,81.28 32.64,81.49 1.75,0.21 16.43,-13.58 16.43,-14.68 0,-1.1 -26.95,-20.59 -26.95,-65.28 0,-44.69 26.73,-61.33 26.73,-62.85 C 56.36,63 44.1,49.24 40.59,49.24 Z"
       fill="#ffffff"
       id="path12758" /><path
       d="m 74.77,78.6 c -1.55,0 -21.69,12.71 -22.13,46.88 -0.45,35.05 19.72,52.36 21,52.58 1.28,0.22 14.24,-13.36 14.24,-14.46 0,-1.1 -15.48,-11.84 -14.68,-35.49 C 74.08,102.26 88.1,93.5 88.1,92.4 88.1,91.3 76.74,78.6 74.77,78.6 Z"
       fill="#ffffff"
       id="path12760" /><path
       d="m 215.41,49.24 c 1.28,0 33.08,24.32 33.08,76 0,53.23 -30.89,81.28 -32.64,81.49 -1.75,0.21 -16.43,-13.58 -16.43,-14.68 0,-1.1 26.95,-20.59 26.95,-65.28 0,-44.69 -26.73,-61.36 -26.73,-62.87 0,-0.9 12.26,-14.66 15.77,-14.66 z"
       fill="#ffffff"
       id="path12762" /><path
       d="m 181.23,78.6 c 1.55,0 21.69,12.71 22.13,46.88 0.45,35.05 -19.72,52.36 -21,52.58 -1.28,0.22 -14.24,-13.36 -14.24,-14.46 0,-1.1 15.48,-11.84 14.68,-35.49 -0.88,-25.85 -14.9,-34.61 -14.9,-35.71 0,-1.1 11.36,-13.8 13.33,-13.8 z"
       fill="#ffffff"
       id="path12764" /><path
       d="m 151.07,128.11 c 0,15.17 -10.17,28.47 -26.79,27.47 -14.77,-0.89 -26.79,-12.3 -26.79,-27.47 0,-15.17 10.76,-27.07 26.79,-27.47 15.83,-0.39 26.79,12.3 26.79,27.47 z"
       fill="#e83a2a"
       id="path12766"
       style="fill:#ffffff;fill-opacity:1" /></g></svg>
