<?xml version="1.0" encoding="UTF-8" standalone="no"?>
<svg
   id="Calque_1"
   data-name="Calque 1"
   viewBox="0 0 283.78 109.81"
   version="1.1"
   sodipodi:docname="LogoMonEImpact2.svg"
   inkscape:version="1.2.2 (732a01da63, 2022-12-09)"
   xmlns:inkscape="http://www.inkscape.org/namespaces/inkscape"
   xmlns:sodipodi="http://sodipodi.sourceforge.net/DTD/sodipodi-0.dtd"
   xmlns="http://www.w3.org/2000/svg"
   xmlns:svg="http://www.w3.org/2000/svg"
   xmlns:rdf="http://www.w3.org/1999/02/22-rdf-syntax-ns#"
   xmlns:cc="http://creativecommons.org/ns#"
   xmlns:dc="http://purl.org/dc/elements/1.1/">
  <sodipodi:namedview
     id="namedview5783"
     pagecolor="#ffffff"
     bordercolor="#000000"
     borderopacity="0.25"
     inkscape:showpageshadow="2"
     inkscape:pageopacity="0.0"
     inkscape:pagecheckerboard="0"
     inkscape:deskcolor="#d1d1d1"
     showgrid="false"
     inkscape:zoom="4.5070125"
     inkscape:cx="141.77906"
     inkscape:cy="54.803487"
     inkscape:window-width="1920"
     inkscape:window-height="1017"
     inkscape:window-x="-8"
     inkscape:window-y="-8"
     inkscape:window-maximized="1"
     inkscape:current-layer="Calque_1" />
  <defs
     id="defs5688">
    <style
       id="style5686">.cls-1{fill:#8d8383;}.cls-2{fill:none;}.cls-3,.cls-7{fill:#25995c;}.cls-3,.cls-4{fill-rule:evenodd;}.cls-4,.cls-6{fill:#80cc2a;}.cls-5{isolation:isolate;}</style>
  </defs>
  <title
     id="title5690">LogoMonEImpact</title>
  <rect
     class="cls-2"
     x="134.53"
     y="92.72"
     width="149.25"
     height="0.75"
     id="rect5694" />
  <path
     class="cls-3"
     d="M16.87,10.33c24.59,2.85,36.38,16,34.62,40.16a.25.25,0,0,0,.49.08c2-7.71,2.69-14.88,1.47-21.33C49.45,8,25,2.24,6.57,6.65A1.2,1.2,0,0,0,5.7,8.11a1.16,1.16,0,0,0,.3.54c12.38,12.74,6.87,42.77,41.85,33.68-3.24-17-12.71-28.44-31-32"
     transform="translate(-0.01 0)"
     id="path5696" />
  <rect
     class="cls-2"
     x="4.23"
     y="1.87"
     width="50.25"
     height="52.5"
     transform="translate(-2.08 53.9) rotate(-83.13)"
     id="rect5698" />
  <rect
     class="cls-2"
     x="4.23"
     y="1.87"
     width="50.25"
     height="52.5"
     transform="translate(-2.08 53.9) rotate(-83.13)"
     id="rect5700" />
  <rect
     class="cls-2"
     x="3.95"
     y="1.83"
     width="50.25"
     height="52.5"
     transform="matrix(0.12, -0.99, 0.99, 0.12, -2.29, 53.59)"
     id="rect5702" />
  <path
     class="cls-4"
     d="M84.35,18C65.25,18,55,26.84,54.13,45.23a.19.19,0,0,1-.24.15.23.23,0,0,1-.15-.15c-.85-6-.68-11.49.85-16.25,5-15.72,24.31-17.78,38-12.81a.91.91,0,0,1,.55,1.16.84.84,0,0,1-.3.42c-10.67,8.5-9.21,31.7-35.17,21.64C61.73,26.83,70,19.05,84.36,18"
     transform="translate(-0.01 0)"
     id="path5704" />
  <rect
     class="cls-2"
     x="52.89"
     y="11.22"
     width="40.5"
     height="38.25"
     id="rect5706" />
  <path
     class="cls-1"
     d="M52.93,109.33a31.52,31.52,0,0,0,13.6-59.81A3.36,3.36,0,0,0,62,51.08v0a3.41,3.41,0,0,0,1.58,4.53,24.48,24.48,0,1,1-21.36,0,3.4,3.4,0,0,0,1.57-4.53,3.36,3.36,0,0,0-4.46-1.61l0,0a31.52,31.52,0,0,0,13.6,59.81Z"
     transform="translate(-0.01 0)"
     id="path5708" />
  <path
     class="cls-1"
     d="M52.75,58.83A2.82,2.82,0,0,0,55.56,56h0V41.62A2.81,2.81,0,0,0,50,41.28a1.93,1.93,0,0,0,0,.34V56A2.82,2.82,0,0,0,52.75,58.83Z"
     transform="translate(-0.01 0)"
     id="path5710" />
  <rect
     class="cls-2"
     x="26.5"
     y="38.79"
     width="52.5"
     height="58.5"
     id="rect5712" />
  <g
     class="cls-5"
     id="g5720">
    <path
       class="cls-6"
       d="M96,52.15l3.63-18.51L105.58,47l6.12-13.38L115,52.15h-2.67l-1.66-10.39-5.1,11.18-5-11.2L98.73,52.15Z"
       transform="translate(-0.01 0)"
       id="path5714" />
    <path
       class="cls-6"
       d="M117.74,43.46a8.42,8.42,0,0,1,2.67-6.24,8.76,8.76,0,0,1,6.38-2.61,9,9,0,0,1,9,9,8.44,8.44,0,0,1-2.65,6.3,9.09,9.09,0,0,1-12.42.29A8.45,8.45,0,0,1,117.74,43.46Zm2.62,0a6.22,6.22,0,0,0,1.92,4.69,6.36,6.36,0,0,0,9,0,6.37,6.37,0,0,0,1.86-4.62,6.29,6.29,0,0,0-1.84-4.62,6.42,6.42,0,0,0-9.06,0A6.21,6.21,0,0,0,120.36,43.5Z"
       transform="translate(-0.01 0)"
       id="path5716" />
    <path
       class="cls-6"
       d="M139,52.15V33.76L151.57,46.9v-12h2.6V53.2L141.61,40.09V52.15Z"
       transform="translate(-0.01 0)"
       id="path5718" />
  </g>
  <g
     class="cls-5"
     id="g5724">
    <path
       class="cls-7"
       d="M100.33,79.11q0,8.7,8.18,8.7a7.29,7.29,0,0,0,6.61-3.57h13q-3.94,13.08-19.71,13.08a25.74,25.74,0,0,1-8.84-1.45,19.7,19.7,0,0,1-6.88-4.12,18.57,18.57,0,0,1-4.43-6.4A21.31,21.31,0,0,1,86.72,77a23.56,23.56,0,0,1,1.49-8.59,18.06,18.06,0,0,1,4.24-6.51,18.7,18.7,0,0,1,6.65-4.12,25.09,25.09,0,0,1,8.81-1.45,24.58,24.58,0,0,1,8.7,1.45,17.38,17.38,0,0,1,6.54,4.2,18.07,18.07,0,0,1,4.09,6.73,26.64,26.64,0,0,1,1.42,9v1.42Zm15.76-7.81a8.11,8.11,0,0,0-2.75-4.54,8.53,8.53,0,0,0-10.15-.07,7.44,7.44,0,0,0-2.49,4.61Z"
       transform="translate(-0.01 0)"
       id="path5722" />
  </g>
  <g
     class="cls-5"
     id="g5748">
    <g
       class="cls-5"
       id="g5732">
      <path
         class="cls-6"
         d="M133.12,79.92h5V82.1h-5Z"
         transform="translate(-0.01 0)"
         id="path5726" />
      <path
         class="cls-6"
         d="M149.8,69.31V86.53h-2.59V69.31Z"
         transform="translate(-0.01 0)"
         id="path5728" />
      <path
         class="cls-6"
         d="M153.34,86.53,157,68l5.91,13.38L169,68l3.25,18.51h-2.66l-1.66-10.39-5.1,11.18-5-11.2L156,86.53Z"
         transform="translate(-0.01 0)"
         id="path5730" />
    </g>
    <g
       class="cls-5"
       id="g5736">
      <path
         class="cls-6"
         d="M178.5,79.54v7h-2.6V69.31h2.95a13.38,13.38,0,0,1,3.27.3,4.39,4.39,0,0,1,2,1.14,4.91,4.91,0,0,1,1.48,3.66A4.73,4.73,0,0,1,184,78.15a6.24,6.24,0,0,1-4.27,1.39Zm0-2.41h1q3.59,0,3.58-2.76t-3.69-2.66h-.86Z"
         transform="translate(-0.01 0)"
         id="path5734" />
    </g>
    <g
       class="cls-5"
       id="g5740">
      <path
         class="cls-6"
         d="M197.09,82.35h-7.37l-1.92,4.18H185l8.52-18.3,8.22,18.3h-2.85ZM196,79.91l-2.56-5.86-2.67,5.86Z"
         transform="translate(-0.01 0)"
         id="path5738" />
    </g>
    <g
       class="cls-5"
       id="g5746">
      <path
         class="cls-6"
         d="M215.81,70.24v3.07a7.24,7.24,0,0,0-4.66-1.88,6,6,0,0,0-4.48,1.91A6.42,6.42,0,0,0,204.84,78a6.28,6.28,0,0,0,1.83,4.57,6.06,6.06,0,0,0,4.49,1.86,5.47,5.47,0,0,0,2.33-.45,6.13,6.13,0,0,0,1.11-.6,13.18,13.18,0,0,0,1.21-.91v3.13a9.41,9.41,0,0,1-4.69,1.26,8.67,8.67,0,0,1-6.3-2.57,8.56,8.56,0,0,1-2.6-6.27,8.87,8.87,0,0,1,2.18-5.87A8.65,8.65,0,0,1,211.32,69,8.8,8.8,0,0,1,215.81,70.24Z"
         transform="translate(-0.01 0)"
         id="path5742" />
      <path
         class="cls-6"
         d="M223.84,71.75V86.53h-2.6V71.75h-4V69.31h10.51v2.44Z"
         transform="translate(-0.01 0)"
         id="path5744" />
    </g>
  </g>
  <metadata
     id="metadata5832">
    <rdf:RDF>
      <cc:Work
         rdf:about="">
        <dc:title>LogoMonEImpact</dc:title>
      </cc:Work>
    </rdf:RDF>
  </metadata>
</svg>
