<?xml version="1.0" encoding="UTF-8" standalone="no"?>
<!-- Uploaded to: SVG Repo, www.svgrepo.com, Generator: SVG Repo Mixer Tools -->

<svg
   width="744.52625"
   height="553.15961"
   viewBox="0 0 238.2484 177.01107"
   version="1.1"
   id="svg16"
   sodipodi:docname="play-video-youtube-svgrepo-com.svg"
   xml:space="preserve"
   inkscape:version="1.2.2 (732a01da63, 2022-12-09)"
   xmlns:inkscape="http://www.inkscape.org/namespaces/inkscape"
   xmlns:sodipodi="http://sodipodi.sourceforge.net/DTD/sodipodi-0.dtd"
   xmlns="http://www.w3.org/2000/svg"
   xmlns:svg="http://www.w3.org/2000/svg"><defs
     id="defs20" /><sodipodi:namedview
     id="namedview18"
     pagecolor="#ffffff"
     bordercolor="#000000"
     borderopacity="0.25"
     inkscape:showpageshadow="2"
     inkscape:pageopacity="0.0"
     inkscape:pagecheckerboard="0"
     inkscape:deskcolor="#d1d1d1"
     showgrid="false"
     inkscape:zoom="0.73981047"
     inkscape:cx="369.01343"
     inkscape:cy="268.98781"
     inkscape:window-width="1920"
     inkscape:window-height="1017"
     inkscape:window-x="1912"
     inkscape:window-y="-8"
     inkscape:window-maximized="1"
     inkscape:current-layer="svg16" /><g
     id="g6"
     transform="translate(-8.8749583,-39.498917)"><path
       d="M 30,57 C 48.48,43.88 218.13,43.66 230.18,60.38 242.23,77.1 243.73,190.29 224.38,199.49 205.03,208.69 45.35,214.58 30,198 14.65,181.42 10.39,71 30,57 Z"
       fill="#191919"
       id="path2" /><path
       d="m 113.38,216.51 c -77.15,0 -86.17,-9.74 -89.24,-13 C 10.17,188.4 6.56,127.61 10.2,92.38 12.53,69.8 17.5,56.1 25.37,50.51 29,47.94 37.21,44.23 66.7,41.7 c 18.68,-1.6 42.08,-2.37 65.87,-2.17 24.5,0.21 47.51,1.46 64.79,3.51 29.07,3.45 36.18,8.36 39.31,12.69 7.59,10.52 9.66,40.46 10.23,57.37 0.93,27.89 -1.08,54.5 -5.36,71.19 -3.18,12.38 -7.54,19.51 -13.72,22.45 -13.35,6.35 -68.33,9.27 -102,9.69 q -6.51,0.08 -12.44,0.08 z M 34.64,63.51 C 34.4,63.72 28.81,68 26.11,94 c -1.85,17.9 -1.66,40.64 0.5,60.84 2.65,24.76 7.07,35.36 9.25,37.72 4,3.56 31.64,8.65 91,7.83 51.53,-0.71 87.59,-5.14 94,-8.09 0.33,-0.26 3.91,-3.44 6.85,-19.88 3,-16.75 4.1,-40.75 3,-64.18 -1.24,-25.69 -4.71,-39.57 -6.84,-42.94 -4.7,-3.67 -34.05,-9.49 -94.18,-9.81 -56.59,-0.3 -90.17,4.62 -95,8 z"
       fill="#191919"
       id="path4" /></g><g
     id="g10"
     style="fill:#70ad47;fill-opacity:1"
     transform="translate(-8.8749583,-39.498917)"><path
       d="M 30,57 C 48.48,43.88 218.13,43.66 230.18,60.38 242.23,77.1 243.73,190.29 224.38,199.49 205.03,208.69 45.35,214.58 30,198 14.65,181.42 10.39,71 30,57 Z"
       fill="#e83a2a"
       id="path8"
       style="fill:#70ad47;fill-opacity:1" /></g><g
     id="g1987"
     transform="matrix(0.14692108,0,0,0.14692108,42.217474,16.845641)"><path
       d="M 703.90625,865.90625 663.96875,850.25 812.65625,470.1875 C 819.5,452.65625 810.21875,432.875 792.3125,427.0625 L 532.25,342.125 c -16.6875,-5.4375 -34.6875,3.1875 -40.875,19.59375 l -129.5625,342.75 -61.40625,-23.15625 181.875,-481.125 c 6.09375,-16.21875 23.8125,-24.84375 40.40625,-19.78125 L 911.75,300.59375 c 18.1875,5.625 27.84375,25.5 20.90625,43.3125 l -199.125,509.0625 c -4.6875,11.71875 -17.90625,17.53125 -29.625,12.9375 z"
       fill="#360682"
       id="path1966"
       style="fill:#ffffff" /><path
       d="m 241.0625,658.15625 m -129.375,0 a 129.375,129.375 0 1 0 258.75,0 129.375,129.375 0 1 0 -258.75,0 z"
       fill="#360682"
       id="path1968"
       style="fill:#ffffff" /><path
       d="m 614.375,802.90625 m -129.375,0 a 129.375,129.375 0 1 0 258.75,0 129.375,129.375 0 1 0 -258.75,0 z"
       fill="#360682"
       id="path1970"
       style="fill:#ffffff" /><path
       d="m 246.53333,379.36667 -104.1,-260.7 c -6.8,-16.9 2.4,-36.000003 19.8,-41.300003 l 107.9,-32.9 c 14.4,-4.4 29.7,2.5 36,16.2 l 13.2,28.8 c 7.5,16.300003 -0.9,35.400003 -17.9,41.000003 l -73.7,24.3 c -6.9,2.3 -10.5,9.9 -7.8,16.6 l 70.4,179.6 c 2.1,5.4 -0.5,11.4 -5.9,13.6 z"
       fill="#e51c5a"
       id="path1972"
       style="fill:#000000;fill-opacity:0.993603" /><path
       d="m 211.53333,379.36667 m -84.8,0 a 84.8,84.8 0 1 0 169.6,0 84.8,84.8 0 1 0 -169.6,0 z"
       fill="#e51c5a"
       id="path1974"
       style="fill:#000000;fill-opacity:1" /></g></svg>
