<?xml version="1.0" encoding="UTF-8" standalone="no"?>
<!-- Uploaded to: SVG Repo, www.svgrepo.com, Generator: SVG Repo Mixer Tools -->

<svg
   fill="#000000"
   width="800px"
   height="800px"
   viewBox="0 0 32 32"
   version="1.1"
   id="svg4"
   sodipodi:docname="phone-svgrepo-com.svg"
   inkscape:version="1.2.2 (732a01da63, 2022-12-09)"
   xmlns:inkscape="http://www.inkscape.org/namespaces/inkscape"
   xmlns:sodipodi="http://sodipodi.sourceforge.net/DTD/sodipodi-0.dtd"
   xmlns="http://www.w3.org/2000/svg"
   xmlns:svg="http://www.w3.org/2000/svg">
  <defs
     id="defs8" />
  <sodipodi:namedview
     id="namedview6"
     pagecolor="#ffffff"
     bordercolor="#000000"
     borderopacity="0.25"
     inkscape:showpageshadow="2"
     inkscape:pageopacity="0.0"
     inkscape:pagecheckerboard="0"
     inkscape:deskcolor="#d1d1d1"
     showgrid="false"
     inkscape:zoom="1.04625"
     inkscape:cx="194.02628"
     inkscape:cy="457.82557"
     inkscape:window-width="1920"
     inkscape:window-height="1017"
     inkscape:window-x="-8"
     inkscape:window-y="-8"
     inkscape:window-maximized="1"
     inkscape:current-layer="svg4" />
  <path
     d="M11.748 5.773S11.418 5 10.914 5c-.496 0-.754.229-.926.387S6.938 7.91 6.938 7.91s-.837.731-.773 2.106c.054 1.375.323 3.332 1.719 6.058 1.386 2.72 4.855 6.876 7.047 8.337 0 0 2.031 1.558 3.921 2.191.549.173 1.647.398 1.903.398.26 0 .719 0 1.246-.385.536-.389 3.543-2.807 3.543-2.807s.736-.665-.119-1.438c-.859-.773-3.467-2.492-4.025-2.944-.559-.459-1.355-.257-1.699.054-.343.313-.956.828-1.031.893-.112.086-.419.365-.763.226-.438-.173-2.234-1.148-3.899-3.426-1.655-2.276-1.837-3.02-2.084-3.824a.56.56 0 0 1 .225-.657c.248-.172 1.161-.933 1.161-.933s.591-.583.344-1.27-1.906-4.716-1.906-4.716z"
     id="path2" />
  <path
     style="fill:#ffffff;stroke-width:0.955795"
     d="m 499.40263,671.40676 c -26.37274,-5.50957 -39.02335,-9.99217 -63.12944,-22.36916 -24.3609,-12.50782 -56.23663,-33.30247 -79.36912,-51.77774 -39.14371,-31.26297 -94.60813,-94.32305 -131.4975,-149.50563 -14.29205,-21.3794 -21.18685,-33.23224 -31.39257,-53.96689 -24.81584,-50.41762 -37.3292,-95.22766 -38.83526,-139.0681 -0.59696,-17.37735 0.3636,-24.46084 4.80973,-35.46835 5.48357,-13.57596 7.52868,-15.65276 50.5669,-51.35071 50.50023,-41.8873 46.90764,-39.11756 53.05782,-40.90546 10.71344,-3.11448 17.70411,-0.4343 24.88383,9.54034 3.10903,4.31931 15.24066,33.06516 40.80141,96.6788 15.29704,38.07012 15.64716,40.49869 7.761,53.83415 -2.83085,4.78696 -15.06415,15.6977 -31.65092,28.2291 -6.32769,4.78061 -8.14243,7.73443 -8.15012,13.26582 -0.0121,8.73067 8.76387,32.04852 18.7935,49.93425 11.56261,20.61951 34.83038,53.95554 50.04634,71.70203 18.05213,21.05435 45.23853,44.72003 64.96509,56.55192 23.4957,14.0926 24.25769,13.93568 52.0908,-10.72744 13.20324,-11.69949 19.95799,-15.46587 29.30186,-16.33842 10.09437,-0.94262 14.49951,0.90665 31.57732,13.25613 8.20084,5.93026 24.71207,17.66402 36.69161,26.07502 27.03131,18.97902 44.83381,32.27662 53.10598,39.66759 11.08608,9.90513 14.00176,19.64041 8.89843,29.71135 -2.16481,4.27205 -6.54847,8.07999 -39.90442,34.66367 -47.94928,38.2141 -54.59807,43.31339 -60.12965,46.11646 -11.63038,5.89355 -23.02236,6.48595 -43.29262,2.25127 z"
     id="path323"
     transform="scale(0.04)" />
</svg>
