<?xml version="1.0" encoding="UTF-8" standalone="no"?>
<!-- Uploaded to: SVG Repo, www.svgrepo.com, Generator: SVG Repo Mixer Tools -->

<svg
   width="696.95001"
   height="728.5625"
   viewBox="0 0 223.024 233.14"
   version="1.1"
   id="svg16684"
   sodipodi:docname="scenario-screenplay-script-svgrepo-com.svg"
   inkscape:version="1.2.2 (732a01da63, 2022-12-09)"
   xmlns:inkscape="http://www.inkscape.org/namespaces/inkscape"
   xmlns:sodipodi="http://sodipodi.sourceforge.net/DTD/sodipodi-0.dtd"
   xmlns="http://www.w3.org/2000/svg"
   xmlns:svg="http://www.w3.org/2000/svg">
  <defs
     id="defs16688" />
  <sodipodi:namedview
     id="namedview16686"
     pagecolor="#ffffff"
     bordercolor="#000000"
     borderopacity="0.25"
     inkscape:showpageshadow="2"
     inkscape:pageopacity="0.0"
     inkscape:pagecheckerboard="0"
     inkscape:deskcolor="#d1d1d1"
     showgrid="false"
     inkscape:zoom="0.523125"
     inkscape:cx="-311.58901"
     inkscape:cy="200.71685"
     inkscape:window-width="1920"
     inkscape:window-height="1017"
     inkscape:window-x="1912"
     inkscape:window-y="-8"
     inkscape:window-maximized="1"
     inkscape:current-layer="svg16684" />
  <g
     id="g16638"
     transform="translate(-23.985934,-12.35)">
    <path
       d="m 39.38,235.93 c 3.09,3.68 152.9,0 154.93,-2.21 2.03,-2.21 5.2,-208.32 2.27,-211.55 C 193.65,18.94 36.67,20 33.06,24.92 c -3.61,4.92 3.23,207.33 6.32,211.01 z"
       fill="#191919"
       id="path16634" />
    <path
       d="m 75,245.49 c -7.14,0 -13.72,-0.06 -19.35,-0.18 -16.56,-0.38 -19.71,-1 -22.44,-4.23 -2.06,-2.45 -2.83,-3.37 -4.66,-38.56 -1,-19.1 -2,-45.12 -2.88,-71.37 -0.87,-27.41 -1.45,-52.84 -1.62,-71.62 -0.33,-35.47 0.63,-36.76 2.53,-39.34 2.47,-3.34 4.52,-4.75 30.84,-6.1 21.08,-1.08 53.68,-1.74 85.21,-1.74 h 0.68 c 55.11,0 56.38,1.41 59.15,4.46 2.44,2.69 3.1,3.41 3.25,39.45 0.08,18.64 -0.08,44.28 -0.44,72.19 -0.34,26.26 -0.84,52.5 -1.37,72 -1,35.74 -1.24,36 -3.74,38.73 -2.79,3 -3.54,3.85 -60.64,5.38 C 120,245 95.33,245.49 75,245.49 Z M 46.3,229 c 22.81,1.57 116.55,-0.6 140.67,-2.37 0.72,-13.35 1.69,-49.67 2.32,-98.09 0.71,-54.29 0.53,-87.23 0,-99.35 -24.4,-1.5 -125.81,-0.86 -149,2.13 -1.23,27.39 3.08,168.77 6.01,197.68 z"
       fill="#191919"
       id="path16636" />
  </g>
  <g
     id="g16642"
     transform="translate(-23.985934,-12.35)">
    <path
       d="m 39.38,235.93 c 3.09,3.68 152.9,0 154.93,-2.21 2.03,-2.21 5.2,-208.32 2.27,-211.55 C 193.65,18.94 36.67,20 33.06,24.92 c -3.61,4.92 3.23,207.33 6.32,211.01 z"
       fill="#ffffff"
       id="path16640" />
  </g>
  <path
     d="m 101.55407,156.53 c -0.47,0.36 -0.46,31.09 0.15,31.59 0.61,0.5 46,0.06 46.53,-0.54 0.53,-0.6 1,-31.5 0,-31.89 -1,-0.39 -45.88,0.23 -46.68,0.84 z"
     fill="#ffffff"
     id="path16644" />
  <path
     d="m 110.64407,192.37 c -10.08,0 -10.46,-0.31 -11.490004,-1.16 -1.6,-1.32 -1.75,-1.76 -1.89,-13 -0.07,-5.51 -0.06,-12 0,-16.51 0.1,-5.66 0.13,-7 1.84,-8.31 1.300004,-1 1.610004,-1.23 25.670004,-1.61 23.46,-0.37 24.13,-0.1 25,0.25 a 4.26,4.26 0 0 1 2.55,3.22 c 0.55,2.53 0.54,12.2 0.48,17.75 -0.16,15.79 -0.48,16.13 -1.67,17.38 -1.46,1.54 -1.58,1.67 -26.11,1.93 -6.24,0.02 -10.89,0.06 -14.38,0.06 z m -5.25,-8.06 c 8.44,0.14 31,-0.11 39.17,-0.44 0.25,-5.83 0.37,-18.51 0.15,-24.29 -8.35,-0.05 -31.07,0.27 -39.4,0.64 -0.16,5.85 -0.11,18.3 0.08,24.09 z"
     fill="#191919"
     id="path16646" />
  <path
     d="m 37.234066,156.97 c -0.47,0.36 -0.46,31.09 0.15,31.59 0.61,0.5 46,0.06 46.53,-0.54 0.53,-0.6 1,-31.5 0,-31.89 -1,-0.39 -45.9,0.23 -46.68,0.84 z"
     fill="#ffffff"
     id="path16648" />
  <path
     d="m 46.324066,192.81 c -10.08,0 -10.46,-0.31 -11.49,-1.16 -1.6,-1.32 -1.75,-1.76 -1.89,-13 -0.07,-5.51 -0.06,-12 0,-16.51 0.1,-5.66 0.13,-7 1.84,-8.3 1.3,-1 1.61,-1.23 25.67,-1.61 23.45,-0.37 24.13,-0.1 25,0.25 a 4.26,4.26 0 0 1 2.56,3.17 c 0.55,2.53 0.54,12.2 0.48,17.75 -0.16,15.79 -0.48,16.13 -1.67,17.39 -1.46,1.54 -1.58,1.67 -26.11,1.93 -6.25,0.06 -10.9,0.09 -14.39,0.09 z m -5.25,-8.06 c 8.45,0.14 31,-0.11 39.17,-0.44 0.25,-5.83 0.37,-18.51 0.15,-24.29 -8.35,0 -31.07,0.27 -39.4,0.64 -0.15,5.85 -0.11,18.31 0.08,24.1 z"
     fill="#191919"
     id="path16650" />
  <path
     d="m 101.55407,105.24 c -0.47,0.36 -0.46,31.09 0.15,31.59 0.61,0.5 46,0.06 46.53,-0.54 0.53,-0.6 1,-31.5 0,-31.89 -1,-0.39 -45.88,0.25 -46.68,0.84 z"
     fill="#ffffff"
     id="path16652" />
  <path
     d="m 110.64407,141.08 c -10.08,0 -10.46,-0.31 -11.490004,-1.16 -1.6,-1.32 -1.75,-1.76 -1.89,-13 -0.07,-5.51 -0.06,-12 0,-16.51 0.1,-5.66 0.13,-7 1.84,-8.31 1.300004,-1 1.610004,-1.23 25.670004,-1.61 23.46,-0.37 24.13,-0.1 25,0.25 a 4.26,4.26 0 0 1 2.55,3.22 c 0.55,2.53 0.54,12.2 0.48,17.75 -0.16,15.79 -0.48,16.13 -1.67,17.38 -1.46,1.54 -1.58,1.67 -26.11,1.93 -6.24,0.02 -10.89,0.06 -14.38,0.06 z m -5.25,-8.06 c 8.44,0.14 31,-0.11 39.17,-0.44 0.25,-5.83 0.37,-18.51 0.15,-24.29 -8.36,0 -31.07,0.27 -39.4,0.64 -0.16,5.85 -0.11,18.3 0.08,24.09 z"
     fill="#191919"
     id="path16654" />
  <path
     d="m 37.234066,105.65 c -0.47,0.36 -0.46,31.09 0.15,31.59 0.61,0.5 46,0.06 46.53,-0.54 0.53,-0.6 1,-31.5 0,-31.89 -1,-0.39 -45.9,0.26 -46.68,0.84 z"
     fill="#ffffff"
     id="path16656" />
  <path
     d="m 46.334066,141.52 c -10.08,0 -10.46,-0.31 -11.49,-1.16 -1.6,-1.32 -1.75,-1.76 -1.89,-13 -0.07,-5.51 -0.06,-12 0,-16.51 0.1,-5.66 0.13,-7 1.84,-8.3 1.3,-1 1.61,-1.23 25.67,-1.61 23.46,-0.37 24.13,-0.1 25,0.25 a 4.26,4.26 0 0 1 2.55,3.22 c 0.55,2.53 0.54,12.2 0.48,17.75 -0.16,15.79 -0.48,16.13 -1.67,17.38 -1.46,1.54 -1.58,1.67 -26.12,1.93 -6.24,0.01 -10.89,0.05 -14.37,0.05 z m -5.25,-8.06 c 8.45,0.14 31,-0.11 39.17,-0.44 0.25,-5.83 0.37,-18.51 0.15,-24.29 -8.33,0 -31.07,0.27 -39.4,0.64 -0.16,5.85 -0.12,18.28 0.07,24.1 z"
     fill="#191919"
     id="path16658" />
  <path
     d="m 101.55407,55.36 c -0.47,0.36 -0.46,31.09 0.15,31.59 0.61,0.5 46,0.06 46.53,-0.54 0.53,-0.6 1,-31.5 0,-31.89 -1,-0.39 -45.88,0.23 -46.68,0.84 z"
     fill="#ffffff"
     id="path16660" />
  <path
     d="m 110.64407,91.2 c -10.08,0 -10.46,-0.31 -11.490004,-1.16 -1.6,-1.32 -1.75,-1.76 -1.89,-13 -0.07,-5.51 -0.06,-12 0,-16.51 0.1,-5.66 0.13,-7 1.84,-8.3 1.300004,-1 1.610004,-1.23 25.670004,-1.61 23.46,-0.37 24.13,-0.1 25,0.25 a 4.26,4.26 0 0 1 2.55,3.22 c 0.55,2.53 0.54,12.2 0.48,17.75 -0.16,15.79 -0.48,16.13 -1.67,17.39 -1.46,1.54 -1.58,1.67 -26.11,1.92 -6.24,0.01 -10.89,0.05 -14.38,0.05 z m -5.25,-8.06 c 8.45,0.14 31,-0.11 39.17,-0.44 0.25,-5.83 0.37,-18.51 0.15,-24.29 -8.35,0 -31.07,0.27 -39.4,0.64 -0.16,5.85 -0.11,18.31 0.08,24.1 z"
     fill="#191919"
     id="path16662" />
  <path
     d="m 37.234066,55.81 c -0.47,0.36 -0.46,31.09 0.15,31.59 0.61,0.5 46,0.06 46.53,-0.54 0.53,-0.6 1,-31.5 0,-31.89 -1,-0.39 -45.9,0.23 -46.68,0.84 z"
     fill="#ffffff"
     id="path16664" />
  <path
     d="m 46.324066,91.65 c -10.08,0 -10.46,-0.31 -11.49,-1.16 -1.61,-1.32 -1.76,-1.77 -1.9,-13.13 -0.07,-5.48 -0.06,-12.13 0,-16.56 0.11,-5.69 0.13,-6.87 1.84,-8.18 1.3,-1 1.61,-1.23 25.67,-1.61 23.46,-0.37 24.13,-0.1 25,0.25 a 4.26,4.26 0 0 1 2.57,3.22 c 0.55,2.53 0.54,12.2 0.48,17.75 -0.16,15.79 -0.48,16.13 -1.67,17.39 -1.46,1.54 -1.58,1.67 -26.11,1.93 -6.25,0.1 -10.9,0.1 -14.39,0.1 z m -5.25,-8.06 c 8.45,0.14 31,-0.11 39.17,-0.44 0.25,-5.83 0.37,-18.51 0.15,-24.29 -8.37,0 -31.07,0.27 -39.4,0.64 -0.15,5.85 -0.11,18.3 0.08,24.09 z"
     fill="#191919"
     id="path16666" />
  <g
     id="g16670"
     transform="translate(-23.985934,-12.35)">
    <path
       d="m 98.1,45.55 c 2.18,0.79 32,-0.1 34.62,-0.07 2.62,0.03 2.93,-9.63 -0.12,-10 -3.05,-0.37 -29.7,-0.17 -33.3,-0.11 -3.6,0.06 -3.38,9.39 -1.2,10.18 z"
       fill="#191919"
       id="path16668" />
  </g>
  <path
     d="m 32.794066,203.28 c -1,1 -0.81,10.06 0.14,10.85 0.95,0.79 9,0.62 10.16,-0.4 1.16,-1.02 0.78,-9.82 -0.14,-10.58 -0.92,-0.76 -9.2,-0.83 -10.16,0.13 z"
     fill="#191919"
     id="path16672" />
  <path
     d="m 133.69407,166.65 c -1.6,-1.23 6.58,-26.33 7.34,-28.48 1.1,-3.1 52.39,-64.24 55.94,-68.21 4.82,-5.4 22.09,10.19 17.18,15.5 a 803.87,803.87 0 0 0 -55.08,66.33 c -1.96,2.21 -23.78,16.14 -25.38,14.86 z"
     fill="#191919"
     id="path16674" />
  <path
     d="m 133.78407,174.82 a 7.86,7.86 0 0 1 -5,-1.8 c -5.32,-4.11 -3.43,-10.63 0,-22.45 2,-6.75 4.24,-13.73 4.7,-15 0.64,-1.8 1.18,-3.35 28.44,-36.22 13.35,-16.11 27.15,-32.5 29.09,-34.7 2.85,-3.19 7.15,-4.45 11.8,-3.46 7.82,1.67 17.13,10.11 19.53,17.69 1.43,4.51 0.58,8.9 -2.32,12 a 803.73,803.73 0 0 0 -54.47,65.59 8.32,8.32 0 0 1 -0.55,0.68 c -2.38,2.62 -11.77,8.44 -14.59,10.16 -7.83,4.84 -12.73,7.51 -16.63,7.51 z m 14.55,-33.23 c -0.71,2.08 -2,6.05 -3.22,10.23 3.49,-2.2 6.66,-4.32 8,-5.39 a 828.9,828.9 0 0 1 53.14,-64.17 20.5,20.5 0 0 0 -5.24,-4.72 c -9.76,11.44 -48,57.29 -52.68,64.06 z"
     fill="#191919"
     id="path16676" />
  <path
     d="m 133.69407,166.65 c -1.6,-1.23 6.58,-26.33 7.34,-28.48 1.1,-3.1 52.39,-64.24 55.94,-68.21 4.82,-5.4 22.09,10.19 17.18,15.5 a 803.87,803.87 0 0 0 -55.08,66.33 c -1.96,2.21 -23.78,16.14 -25.38,14.86 z"
     fill="#ffffff"
     id="path16678" />
  <path
     d="m 146.89407,160.93 c -4.22,-0.85 -9.17,-4.52 -10.82,-7 -0.61,-0.92 -3.79,13.84 -3.24,14 0.55,0.16 15.42,-6.72 14.06,-7 z"
     fill="#e83a2a"
     id="path16680"
     style="fill:#70ad47;fill-opacity:1" />
  <path
     d="m 188.90407,79.25 c 3.06,-3.51 20.35,11.28 17,15.38 -2.21,2.73 -12.62,15.3 -23.6,29.06 -33.52,42 -19.9,25.61 -24.68,21.81 -0.72,-0.57 -6.24,0.82 -7.79,-0.18 -1.55,-1 -1.3,-7.07 -2.19,-7.93 -2.72,-2.69 -25.57,18.58 41.26,-58.14 z"
     fill="#e83a2a"
     id="path16682"
     style="fill:#70ad47;fill-opacity:1" />
</svg>
