<?xml version="1.0" encoding="UTF-8" standalone="no"?>
<!-- Uploaded to: SVG Repo, www.svgrepo.com, Generator: SVG Repo Mixer Tools -->

<svg
   width="701.5285"
   height="521.76221"
   viewBox="0 0 224.48912 166.96391"
   version="1.1"
   id="svg5203"
   sodipodi:docname="shower.svg"
   xml:space="preserve"
   inkscape:version="1.2.2 (732a01da63, 2022-12-09)"
   xmlns:inkscape="http://www.inkscape.org/namespaces/inkscape"
   xmlns:sodipodi="http://sodipodi.sourceforge.net/DTD/sodipodi-0.dtd"
   xmlns="http://www.w3.org/2000/svg"
   xmlns:svg="http://www.w3.org/2000/svg"><defs
     id="defs5207" /><sodipodi:namedview
     id="namedview5205"
     pagecolor="#ffffff"
     bordercolor="#000000"
     borderopacity="0.25"
     inkscape:showpageshadow="2"
     inkscape:pageopacity="0.0"
     inkscape:pagecheckerboard="0"
     inkscape:deskcolor="#d1d1d1"
     showgrid="false"
     inkscape:zoom="0.36990524"
     inkscape:cx="-327.1108"
     inkscape:cy="40.550926"
     inkscape:window-width="1920"
     inkscape:window-height="1017"
     inkscape:window-x="1912"
     inkscape:window-y="-8"
     inkscape:window-maximized="1"
     inkscape:current-layer="svg5203" /><g
     id="g5173"
     style="fill:#000000;fill-opacity:1"
     transform="translate(-15.773054,-44.526089)"><path
       d="m 36.1,61.46 c 17.33,-12.3 176.44,-12.51 187.74,3.17 11.3,15.68 12.71,121.81 -5.44,130.43 -18.15,8.62 -167.91,14.13 -182.3,-1.4 -14.39,-15.53 -18.39,-119.15 0,-132.2 z"
       fill="#191919"
       id="path5169"
       style="fill:#000000;fill-opacity:1" /><path
       d="M 114.37,211.49 C 41.72,211.49 33.15,202.24 30.24,199.1 17,184.87 13.61,127.68 17,94.55 19.24,73.22 24,60.27 31.47,54.94 46.37,44.36 118.08,44.43 132.3,44.55 c 23,0.2 44.6,1.37 60.82,3.29 27.45,3.26 34.21,8 37.21,12.11 11.62,16.11 12.88,88.87 4.64,121 -3,11.76 -7.2,18.56 -13.14,21.38 -12.6,6 -64.25,8.74 -95.9,9.13 q -6.03,0.03 -11.56,0.03 z M 41.91,188.16 c 4.1,3.35 30.12,8 85.37,7.24 44,-0.62 80.67,-4.37 87.57,-7.51 2.89,-2.28 8.89,-19.13 9.34,-57.41 0.38,-32.53 -3.57,-55.91 -6.66,-60.89 -4.64,-3.4 -32.2,-8.76 -88,-9.05 C 76.88,60.24 45.41,64.83 40.74,68 38.91,69.29 35,76.84 33,96.2 c -1.73,16.75 -1.56,38 0.47,56.94 C 35.88,176 40,186 41.91,188.16 Z"
       fill="#191919"
       id="path5171"
       style="fill:#000000;fill-opacity:1" /></g><g
     id="g5177"
     style="fill:#70ad47;fill-opacity:1"
     transform="translate(-15.773054,-44.526089)"><path
       d="m 36.1,61.46 c 17.33,-12.3 176.44,-12.51 187.74,3.17 11.3,15.68 12.71,121.81 -5.44,130.43 -18.15,8.62 -167.91,14.13 -182.3,-1.4 -14.39,-15.53 -18.39,-119.15 0,-132.2 z"
       fill="#e83a2a"
       id="path5175"
       style="fill:#70ad47;fill-opacity:1" /></g><style
     type="text/css"
     id="style6819">
	.st0{fill:#000000;}
</style><g
     id="g6853"
     transform="matrix(0.26165645,0,0,0.26165645,45.242764,12.661272)"
     style="fill:#ffffff">
	<path
   class="st0"
   d="m 134.959,310.276 h 202.98 c 8.456,0 15.316,-6.865 15.316,-15.321 V 280.247 H 119.637 v 14.708 c 0,8.456 6.856,15.321 15.322,15.321 z"
   id="path6821"
   style="fill:#ffffff" />
	<path
   class="st0"
   d="m 264.972,184.582 v -12.224 c 0,-6.261 -5.082,-11.342 -11.347,-11.342 h -34.357 c -6.266,0 -11.347,5.082 -11.347,11.342 v 12.224 c -42.919,10.46 -76.812,43.95 -87.804,86.654 h 232.659 c -10.992,-42.704 -44.89,-76.194 -87.804,-86.654 z"
   id="path6823"
   style="fill:#ffffff" />
	<path
   class="st0"
   d="m 70.798,498.98 c 0,7.192 5.825,13.02 13.011,13.02 7.186,0 13.01,-5.829 13.01,-13.02 0,-7.19 -13.01,-23.173 -13.01,-23.173 0,0 -13.011,15.982 -13.011,23.173 z"
   id="path6825"
   style="fill:#ffffff" />
	<path
   class="st0"
   d="m 147.115,498.98 c 0,7.192 5.825,13.02 13.01,13.02 7.186,0 13.011,-5.829 13.011,-13.02 0,-7.19 -13.011,-23.173 -13.011,-23.173 0,0 -13.01,15.982 -13.01,23.173 z"
   id="path6827"
   style="fill:#ffffff" />
	<path
   class="st0"
   d="m 223.438,498.98 c 0,7.192 5.82,13.02 13.006,13.02 7.191,0 13.01,-5.829 13.01,-13.02 0,-7.19 -13.01,-23.173 -13.01,-23.173 0,0 -13.006,15.982 -13.006,23.173 z"
   id="path6829"
   style="fill:#ffffff" />
	<path
   class="st0"
   d="m 299.756,498.98 c 0,7.192 5.824,13.02 13.01,13.02 7.186,0 13.011,-5.829 13.011,-13.02 0,-7.19 -13.011,-23.173 -13.011,-23.173 0,0 -13.01,15.982 -13.01,23.173 z"
   id="path6831"
   style="fill:#ffffff" />
	<path
   class="st0"
   d="m 376.073,498.98 c 0,7.192 5.825,13.02 13.01,13.02 7.186,0 13.01,-5.829 13.01,-13.02 0,-7.19 -13.01,-23.173 -13.01,-23.173 0,0 -13.01,15.982 -13.01,23.173 z"
   id="path6833"
   style="fill:#ffffff" />
	<path
   class="st0"
   d="m 108.961,430.198 c 0,7.181 5.82,13.001 13.006,13.001 7.191,0 13.01,-5.82 13.01,-13.001 0,-7.192 -13.01,-23.184 -13.01,-23.184 0,0 -13.006,15.993 -13.006,23.184 z"
   id="path6835"
   style="fill:#ffffff" />
	<path
   class="st0"
   d="m 185.275,430.198 c 0,7.181 5.829,13.001 13.01,13.001 7.186,0 13.015,-5.82 13.015,-13.001 0,-7.192 -13.01,-23.184 -13.01,-23.184 0,0 -13.015,15.993 -13.015,23.184 z"
   id="path6837"
   style="fill:#ffffff" />
	<path
   class="st0"
   d="m 261.592,430.198 c 0,7.181 5.829,13.001 13.01,13.001 7.186,0 13.015,-5.82 13.015,-13.001 0,-7.192 -13.015,-23.184 -13.015,-23.184 0,0 -13.01,15.993 -13.01,23.184 z"
   id="path6839"
   style="fill:#ffffff" />
	<path
   class="st0"
   d="m 337.91,430.198 c 0,7.181 5.83,13.001 13.015,13.001 7.186,0 13.01,-5.82 13.01,-13.001 0,-7.192 -13.01,-23.184 -13.01,-23.184 0,0 -13.015,15.993 -13.015,23.184 z"
   id="path6841"
   style="fill:#ffffff" />
	<path
   class="st0"
   d="m 147.115,368.252 c 0,7.19 5.825,13.02 13.01,13.02 7.186,0 13.011,-5.83 13.011,-13.02 0,-7.181 -13.011,-23.174 -13.011,-23.174 0,0 -13.01,15.994 -13.01,23.174 z"
   id="path6843"
   style="fill:#ffffff" />
	<path
   class="st0"
   d="m 223.438,368.252 c 0,7.19 5.82,13.02 13.006,13.02 7.191,0 13.01,-5.83 13.01,-13.02 0,-7.181 -13.01,-23.174 -13.01,-23.174 0,0 -13.006,15.994 -13.006,23.174 z"
   id="path6845"
   style="fill:#ffffff" />
	<path
   class="st0"
   d="m 299.756,368.252 c 0,7.19 5.824,13.02 13.01,13.02 7.186,0 13.011,-5.83 13.011,-13.02 0,-7.181 -13.011,-23.174 -13.011,-23.174 0,0 -13.01,15.994 -13.01,23.174 z"
   id="path6847"
   style="fill:#ffffff" />
	<path
   class="st0"
   d="m 400.671,18.227 v 71.955 c 9.928,11.178 24.401,18.226 40.532,18.226 V 0 c -16.131,0 -30.605,7.057 -40.532,18.227 z"
   id="path6849"
   style="fill:#ffffff" />
	<path
   class="st0"
   d="m 253.27,136.413 c 0,-9.452 1.903,-18.37 5.345,-26.51 5.158,-12.204 13.821,-22.636 24.703,-29.989 5.436,-3.673 11.428,-6.578 17.814,-8.562 6.385,-1.985 13.173,-3.068 20.268,-3.068 h 65.474 V 35.264 H 321.4 c -13.926,-0.01 -27.272,2.828 -39.382,7.958 -18.178,7.689 -33.586,20.489 -44.492,36.624 -5.455,8.073 -9.779,16.98 -12.737,26.5 -2.962,9.511 -4.549,19.636 -4.549,30.067 v 11.525 h 33.03 z"
   id="path6851"
   style="fill:#ffffff" />
</g></svg>
