<?xml version="1.0" encoding="UTF-8" standalone="no"?>
<!-- Uploaded to: SVG Repo, www.svgrepo.com, Generator: SVG Repo Mixer Tools -->

<svg
   fill="#000000"
   width="100"
   height="100"
   viewBox="0 0 100 100"
   xml:space="preserve"
   version="1.1"
   id="svg469"
   sodipodi:docname="solution-svgrepo-com.svg"
   inkscape:version="1.2.2 (732a01da63, 2022-12-09)"
   xmlns:inkscape="http://www.inkscape.org/namespaces/inkscape"
   xmlns:sodipodi="http://sodipodi.sourceforge.net/DTD/sodipodi-0.dtd"
   xmlns="http://www.w3.org/2000/svg"
   xmlns:svg="http://www.w3.org/2000/svg"><defs
   id="defs473" /><sodipodi:namedview
   id="namedview471"
   pagecolor="#ffffff"
   bordercolor="#000000"
   borderopacity="0.25"
   inkscape:showpageshadow="2"
   inkscape:pageopacity="0.0"
   inkscape:pagecheckerboard="0"
   inkscape:deskcolor="#d1d1d1"
   showgrid="false"
   inkscape:zoom="11.313709"
   inkscape:cx="49.055533"
   inkscape:cy="53.740115"
   inkscape:window-width="1920"
   inkscape:window-height="1017"
   inkscape:window-x="-8"
   inkscape:window-y="-8"
   inkscape:window-maximized="1"
   inkscape:current-layer="svg469" />


<g
   id="g467">
	<g
   id="g461">
		<path
   d="M47.6,20.1c-9.8,1.1-17.7,8.8-18.5,18.4c-0.6,7,2.5,13.4,7.5,17.5c1.5,1.2,2.4,3,2.4,4.9v0.1    c0,2.8,2.3,5.1,5.2,5.1h11.6c2.9,0,5.2-2.3,5.2-5.1v-0.1c0-1.9,0.9-3.7,2.4-4.9C68,52.2,71,46.6,71,40.3    C71,28.3,60.3,18.8,47.6,20.1z"
   id="path459" />
	</g>
	<g
   id="g465">
		<path
   d="M59,72H41c-1.1,0-2,0.9-2,2c0,3.3,2.7,6,6,6h10c3.3,0,6-2.7,6-6C61,72.9,60.1,72,59,72z"
   id="path463" />
	</g>
</g>
<path
   style="fill:#70ad47;fill-opacity:1;stroke:none;stroke-width:0.0883883"
   d="m 43.089319,65.932969 c -1.758226,-0.377236 -3.322909,-1.834021 -3.839776,-3.57499 -0.07938,-0.267375 -0.181084,-0.991651 -0.226011,-1.609502 -0.09316,-1.281102 -0.347654,-2.176588 -0.856787,-3.014711 -0.446167,-0.73447 -0.827423,-1.149228 -2.069731,-2.251598 -1.561194,-1.385336 -2.554755,-2.533874 -3.707638,-4.285965 -2.167063,-3.293384 -3.286751,-7.016117 -3.289021,-10.935311 -0.0011,-1.848844 0.168079,-3.2338 0.601495,-4.924872 0.850507,-3.318452 2.498667,-6.240927 4.94358,-8.76583 3.377626,-3.488131 7.336182,-5.530679 12.288782,-6.340806 1.202822,-0.196753 4.422909,-0.222495 5.701049,-0.04557 5.589605,0.773711 10.467743,3.458473 13.838371,7.616171 2.922976,3.605515 4.450576,7.883093 4.456291,12.478482 0.0063,5.099608 -1.950359,9.9292 -5.610934,13.849085 -0.291682,0.312344 -1.03672,1.020959 -1.655642,1.574699 -1.991436,1.78171 -2.532567,2.827171 -2.716869,5.248972 -0.133167,1.749879 -0.54399,2.668402 -1.660707,3.713037 -0.674111,0.630598 -1.537515,1.078178 -2.454599,1.272441 -0.881553,0.186736 -12.869292,0.183485 -13.741853,-0.0037 z"
   id="path4583" /><path
   style="fill:#70ad47;fill-opacity:1;stroke:none;stroke-width:0.0883883"
   d="m 43.748862,79.817022 c -1.95252,-0.425056 -3.717744,-1.990231 -4.364412,-3.869804 -0.285191,-0.828923 -0.399695,-1.834155 -0.270342,-2.373356 0.126818,-0.52864 0.557842,-1.061024 1.070942,-1.322789 0.323636,-0.165106 0.627078,-0.170376 9.811327,-0.170376 9.432451,0 9.479171,8.75e-4 9.858929,0.184714 1.099213,0.53212 1.373477,1.850662 0.75698,3.639239 -0.518344,1.503822 -1.557815,2.684548 -2.983083,3.388459 -1.325245,0.654512 -1.292942,0.6518 -7.689787,0.64559 -4.32674,-0.0042 -5.782345,-0.03281 -6.190554,-0.121677 z"
   id="path4585" /></svg>
