<?xml version="1.0" encoding="UTF-8" standalone="no"?>
<!-- Uploaded to: SVG Repo, www.svgrepo.com, Generator: SVG Repo Mixer Tools -->

<svg
   width="701.5285"
   height="521.76221"
   viewBox="0 0 224.48912 166.96391"
   version="1.1"
   id="svg19047"
   sodipodi:docname="1m-million-views-svgrepo-com.svg"
   xml:space="preserve"
   inkscape:version="1.2.2 (732a01da63, 2022-12-09)"
   xmlns:inkscape="http://www.inkscape.org/namespaces/inkscape"
   xmlns:sodipodi="http://sodipodi.sourceforge.net/DTD/sodipodi-0.dtd"
   xmlns="http://www.w3.org/2000/svg"
   xmlns:svg="http://www.w3.org/2000/svg"><defs
     id="defs19051" /><sodipodi:namedview
     id="namedview19049"
     pagecolor="#ffffff"
     bordercolor="#000000"
     borderopacity="0.25"
     inkscape:showpageshadow="2"
     inkscape:pageopacity="0.0"
     inkscape:pagecheckerboard="0"
     inkscape:deskcolor="#d1d1d1"
     showgrid="false"
     inkscape:zoom="0.73981047"
     inkscape:cx="287.91158"
     inkscape:cy="304.13195"
     inkscape:window-width="1920"
     inkscape:window-height="1017"
     inkscape:window-x="1912"
     inkscape:window-y="-8"
     inkscape:window-maximized="1"
     inkscape:current-layer="svg19047" /><g
     id="g19017"
     transform="translate(-15.773054,-44.526089)"><path
       d="m 36.1,61.46 c 17.33,-12.3 176.44,-12.51 187.74,3.17 11.3,15.68 12.71,121.81 -5.44,130.43 -18.15,8.62 -167.91,14.13 -182.3,-1.4 -14.39,-15.53 -18.39,-119.15 0,-132.2 z"
       fill="#191919"
       id="path19013" /><path
       d="M 114.37,211.49 C 41.72,211.49 33.15,202.24 30.24,199.1 17,184.87 13.61,127.68 17,94.56 19.24,73.23 24,60.27 31.47,54.94 46.37,44.36 118.07,44.43 132.3,44.55 c 23,0.2 44.6,1.37 60.82,3.29 27.45,3.26 34.21,8 37.21,12.11 11.62,16.11 12.88,88.87 4.64,121 -3,11.76 -7.2,18.56 -13.14,21.38 -12.6,6 -64.25,8.74 -95.9,9.13 q -6.03,0.03 -11.56,0.03 z M 41.91,188.16 c 4.1,3.35 30.13,8 85.37,7.24 44,-0.62 80.67,-4.37 87.57,-7.51 2.89,-2.28 8.89,-19.13 9.34,-57.41 0.38,-32.53 -3.57,-55.92 -6.66,-60.89 -4.64,-3.4 -32.2,-8.76 -88,-9.05 C 76.87,60.25 45.41,64.82 40.73,68 38.91,69.28 35,76.84 33,96.2 c -1.73,16.75 -1.56,38 0.47,56.94 C 35.88,176 40,186 41.91,188.16 Z"
       fill="#191919"
       id="path19015" /></g><g
     id="g19021"
     style="fill:#70ad47;fill-opacity:1"
     transform="translate(-15.773054,-44.526089)"><path
       d="m 36.1,61.46 c 17.33,-12.3 176.44,-12.51 187.74,3.17 11.3,15.68 12.71,121.81 -5.44,130.43 -18.15,8.62 -167.91,14.13 -182.3,-1.4 -14.39,-15.53 -18.39,-119.15 0,-132.2 z"
       fill="#e83a2a"
       id="path19019"
       style="fill:#70ad47;fill-opacity:1" /></g><path
     d="m 47.226946,67.473911 c -1.21,-0.66 -9,-2 -10.66,-1.7 -1.66,0.3 -2.11,7 -1.31,7.76 0.8,0.76 9.16,2 10.66,1.7 1.5,-0.3 2.56,-7.14 1.31,-7.76 z"
     fill="#191919"
     id="path19035" /><path
     d="m 46.086946,94.403911 c -1.38,0 -8.9,2.24 -10.28,3.29 -1.38,1.05 1.27,7.189999 2.34,7.519999 1.07,0.33 9.06,-2.37 10.28,-3.29 1.22,-0.92 -0.96,-7.449999 -2.34,-7.519999 z"
     fill="#191919"
     id="path19037" /><path
     d="m 44.296946,81.883911 c 2.35,0.91 2.4,6.84 -0.22,7.58 -2.62,0.74 -16.67,0.89 -18.69,0.13 -2.02,-0.76 -2.62,-6.55 0.22,-7.58 2.84,-1.03 16.11,-1.12 18.69,-0.13 z"
     fill="#191919"
     id="path19039" /><path
     d="m 178.34695,67.473911 c 1.21,-0.66 9,-2 10.66,-1.7 1.66,0.3 2.11,7 1.31,7.76 -0.8,0.76 -9.16,2 -10.66,1.7 -1.5,-0.3 -2.52,-7.14 -1.31,-7.76 z"
     fill="#191919"
     id="path19041" /><path
     d="m 179.53695,94.403911 c 1.38,0 8.9,2.24 10.28,3.29 1.38,1.05 -1.27,7.189999 -2.34,7.519999 -1.07,0.33 -9.06,-2.37 -10.28,-3.29 -1.22,-0.92 0.95,-7.449999 2.34,-7.519999 z"
     fill="#191919"
     id="path19043" /><path
     d="m 181.31695,81.883911 c -2.35,0.91 -2.4,6.84 0.22,7.58 2.62,0.74 16.67,0.89 18.69,0.13 2.02,-0.76 2.62,-6.55 -0.22,-7.58 -2.84,-1.03 -16.11,-1.12 -18.69,-0.13 z"
     fill="#191919"
     id="path19045" /><g
     style="fill:#ffffff;fill-opacity:1"
     id="g19918"
     transform="matrix(4.892215,0,0,4.892215,53.520366,24.76912)"><path
       d="m 21,12 c 0,4.9706 -4.0294,9 -9,9 -4.97056,0 -9,-4.0294 -9,-9 0,-4.97056 4.02944,-9 9,-9 4.9706,0 9,4.02944 9,9 z"
       stroke="#323232"
       stroke-width="2"
       id="path19906"
       style="fill:#ffffff;fill-opacity:1;stroke:#000000;stroke-opacity:1" /><path
       d="m 12,7 v 4.5 0.0196 c 0,0.3001 0.15,0.5804 0.3998,0.7469 v 0 L 15,14"
       stroke="#323232"
       stroke-width="2"
       stroke-linecap="round"
       stroke-linejoin="round"
       id="path19908"
       style="fill:#ffffff;fill-opacity:1;stroke:#000000;stroke-opacity:1" /></g></svg>
