<?xml version="1.0" encoding="UTF-8" standalone="no"?>
<!-- Uploaded to: SVG Repo, www.svgrepo.com, Generator: SVG Repo Mixer Tools -->

<svg
   width="666.05872"
   height="666.66669"
   viewBox="0 0 19.981761 20.000001"
   fill="none"
   version="1.1"
   id="svg2360"
   sodipodi:docname="user-svgrepo-com.svg"
   inkscape:version="1.2.2 (732a01da63, 2022-12-09)"
   xmlns:inkscape="http://www.inkscape.org/namespaces/inkscape"
   xmlns:sodipodi="http://sodipodi.sourceforge.net/DTD/sodipodi-0.dtd"
   xmlns="http://www.w3.org/2000/svg"
   xmlns:svg="http://www.w3.org/2000/svg">
  <defs
     id="defs2364" />
  <sodipodi:namedview
     id="namedview2362"
     pagecolor="#ffffff"
     bordercolor="#000000"
     borderopacity="0.25"
     inkscape:showpageshadow="2"
     inkscape:pageopacity="0.0"
     inkscape:pagecheckerboard="0"
     inkscape:deskcolor="#d1d1d1"
     showgrid="false"
     inkscape:zoom="0.2615625"
     inkscape:cx="-630.82437"
     inkscape:cy="435.84229"
     inkscape:window-width="1920"
     inkscape:window-height="1017"
     inkscape:window-x="1912"
     inkscape:window-y="-8"
     inkscape:window-maximized="1"
     inkscape:current-layer="svg2360" />
  <path
     fill-rule="evenodd"
     clip-rule="evenodd"
     d="m 3.9916957,6 c 0,-3.31371 2.68629,-6 6,-6 3.3137003,0 6.0000003,2.68629 6.0000003,6 0,3.3137 -2.6863,6 -6.0000003,6 -3.31371,0 -6,-2.6863 -6,-6 z"
     fill="#323232"
     id="path2356"
     style="fill:#ffffff" />
  <path
     fill-rule="evenodd"
     clip-rule="evenodd"
     d="M 3.4226357,14.9025 C 5.0475657,14.2213 7.2149957,14 9.9916957,14 c 2.7710003,0 4.9351003,0.2204 6.5586003,0.8981 1.7426,0.7274 2.8122,1.9632 3.3824,3.7606 0.2118,0.668 -0.2892,1.3413 -0.9818,1.3413 H 1.0262857 c -0.68977003,0 -1.18780003,-0.6703 -0.97769003,-1.3346 0.56847,-1.7973 1.63429003,-3.0336 3.37404003,-3.7629 z"
     fill="#323232"
     id="path2358"
     style="fill:#ffffff" />
</svg>
