<?xml version="1.0" encoding="UTF-8" standalone="no"?>
<!-- Uploaded to: SVG Repo, www.svgrepo.com, Generator: SVG Repo Mixer Tools -->

<svg
   width="800px"
   height="800px"
   viewBox="0 0 24 24"
   fill="none"
   version="1.1"
   id="svg1129"
   sodipodi:docname="internet-svgrepo-com.svg"
   inkscape:version="1.2.2 (732a01da63, 2022-12-09)"
   xmlns:inkscape="http://www.inkscape.org/namespaces/inkscape"
   xmlns:sodipodi="http://sodipodi.sourceforge.net/DTD/sodipodi-0.dtd"
   xmlns="http://www.w3.org/2000/svg"
   xmlns:svg="http://www.w3.org/2000/svg">
  <defs
     id="defs1133" />
  <sodipodi:namedview
     id="namedview1131"
     pagecolor="#ffffff"
     bordercolor="#000000"
     borderopacity="0.25"
     inkscape:showpageshadow="2"
     inkscape:pageopacity="0.0"
     inkscape:pagecheckerboard="0"
     inkscape:deskcolor="#d1d1d1"
     showgrid="false"
     inkscape:zoom="1.04625"
     inkscape:cx="399.5221"
     inkscape:cy="400.4779"
     inkscape:window-width="1920"
     inkscape:window-height="1017"
     inkscape:window-x="-8"
     inkscape:window-y="-8"
     inkscape:window-maximized="1"
     inkscape:current-layer="svg1129" />
  <path
     d="M4 15L20 15"
     stroke="#000000"
     stroke-width="2"
     stroke-linecap="round"
     stroke-linejoin="round"
     id="path1121" />
  <path
     d="M4 9L20 9"
     stroke="#000000"
     stroke-width="2"
     stroke-linecap="round"
     stroke-linejoin="round"
     id="path1123" />
  <circle
     cx="12"
     cy="12"
     r="9"
     stroke="#000000"
     stroke-width="2"
     stroke-linecap="round"
     stroke-linejoin="round"
     id="circle1125" />
  <path
     d="M12.0004 20.8182L11.2862 21.5181C11.4742 21.7101 11.7317 21.8182 12.0004 21.8182C12.2691 21.8182 12.5265 21.7101 12.7146 21.5181L12.0004 20.8182ZM12.0004 3.18188L12.7146 2.48198C12.5265 2.29005 12.2691 2.18188 12.0004 2.18188C11.7317 2.18188 11.4742 2.29005 11.2861 2.48198L12.0004 3.18188ZM14.6004 12.0001C14.6004 15.1611 13.3373 18.0251 11.2862 20.1183L12.7146 21.5181C15.1173 19.0662 16.6004 15.7053 16.6004 12.0001H14.6004ZM11.2861 3.88178C13.3373 5.97501 14.6004 8.83903 14.6004 12.0001H16.6004C16.6004 8.29478 15.1173 4.93389 12.7146 2.48198L11.2861 3.88178ZM9.40039 12.0001C9.40039 8.83903 10.6634 5.97501 12.7146 3.88178L11.2861 2.48198C8.88347 4.93389 7.40039 8.29478 7.40039 12.0001H9.40039ZM12.7146 20.1183C10.6634 18.0251 9.40039 15.1611 9.40039 12.0001H7.40039C7.40039 15.7053 8.88348 19.0662 11.2862 21.5181L12.7146 20.1183Z"
     fill="#000000"
     id="path1127" />
  <path
     style="fill:#70ad47;stroke-width:0.955795"
     d="m 375.62724,731.98269 c -23.47211,-2.3005 -37.50066,-4.5611 -55.18615,-8.89283 -60.12163,-14.72564 -114.86033,-46.14371 -158.4522,-90.94592 -36.38528,-37.39553 -61.56474,-78.74163 -77.862171,-127.85407 -22.546727,-67.94475 -22.546727,-140.63499 0,-208.57974 C 101.50767,243.3325 128.73141,200.04988 168.83069,161.04056 216.47109,114.6951 277.07186,83.666551 342.17443,72.285836 364.63446,68.359553 370.90846,67.881711 400,67.881711 c 29.04651,0 35.27641,0.472217 57.82557,4.383092 92.62971,16.065487 175.97396,72.839737 225.74895,153.780597 38.86584,63.20113 55.34479,137.19009 47.02504,211.13815 -8.33919,74.12083 -40.11491,141.02989 -92.58845,194.96039 -56.13712,57.69578 -128.83408,92.09703 -210.29307,99.51369 -9.66168,0.87968 -44.23102,1.0954 -52.0908,0.32506 z m -50.26,-77.5024 c -22.75914,-34.49202 -39.05207,-66.74788 -52.26162,-103.46476 -2.36407,-6.57109 -4.59907,-13.34528 -4.96668,-15.05376 l -0.66836,-3.10633 h -49.65901 -49.659 l 1.14995,2.15053 c 11.00344,20.57787 38.5937,52.9058 60.56606,70.96619 18.17658,14.94041 40.70353,29.00884 60.69295,37.90369 8.19834,3.64808 33.67533,13.05055 35.71327,13.18026 0.45473,0.029 0.0464,-1.13018 -0.90756,-2.57582 z m 161.02419,-1.67131 c 23.24757,-7.9629 42.7242,-17.69646 63.58958,-31.77925 29.30202,-19.77701 57.64248,-49.09153 76.46611,-79.09425 l 5.39697,-8.60215 -48.95987,-0.24772 c -26.92792,-0.13626 -49.24284,0.0788 -49.58872,0.4779 -0.34587,0.39909 -2.23741,5.4568 -4.20341,11.23936 -12.93229,38.03739 -29.73875,71.94326 -54.12802,109.19952 -1.11843,1.70848 -1.82925,3.10633 -1.57958,3.10633 0.24967,0 6.10278,-1.93488 13.00694,-4.29974 z m -71.83513,-27.1348 c 16.11066,-22.01426 33.40476,-53.2463 44.08939,-79.62261 2.70305,-6.67283 4.91464,-12.37175 4.91464,-12.66427 0,-0.29252 -28.60215,-0.53186 -63.56033,-0.53186 -34.95818,0 -63.56033,0.23934 -63.56033,0.53186 0,2.08688 11.28944,27.74791 18.26788,41.52309 10.28857,20.30926 22.16913,39.48473 35.29689,56.96988 l 9.83393,13.098 2.9482,-3.62499 c 1.62151,-1.99374 6.91789,-9.04934 11.76973,-15.6791 z M 251.95335,465.23297 c -0.27787,-0.91995 -1.26712,-8.12425 -2.19833,-16.00955 -2.419,-20.48372 -2.419,-77.96312 0,-98.44684 0.93121,-7.8853 1.92046,-15.0896 2.19833,-16.00955 0.4771,-1.57958 -2.57971,-1.67265 -54.93887,-1.67265 -30.49424,0 -55.63938,0.32259 -55.87809,0.71685 -0.23871,0.39427 -1.37084,5.23298 -2.51585,10.75269 -6.57427,31.69238 -7.43282,67.4021 -2.35542,97.96894 1.60991,9.6919 4.27533,22.5727 4.89512,23.65591 0.22559,0.39426 25.36,0.71685 55.85424,0.71685 52.35916,0 55.41597,-0.0931 54.93887,-1.67265 z m 230.64869,-5.73476 c 5.73627,-38.14343 5.73627,-80.85299 0,-118.99642 l -1.11398,-7.40741 H 400 318.51194 l -1.11398,7.40741 c -5.70804,37.95572 -5.70804,81.0407 0,118.99642 l 1.11398,7.40741 H 400 481.48806 Z m 177.57528,1.67264 c 9.08459,-39.74662 9.08459,-82.59508 0,-122.3417 l -1.20152,-5.25687 -55.71964,-0.24668 c -52.78376,-0.23368 -55.69293,-0.15814 -55.21286,1.43369 0.27873,0.92421 1.27126,7.91693 2.20563,15.5394 2.43946,19.90081 2.42928,79.47256 -0.017,99.40262 -0.9356,7.62247 -1.92481,14.61519 -2.19826,15.5394 -0.47094,1.59173 2.44182,1.66735 55.22247,1.43369 l 55.71968,-0.24668 z M 267.62246,265.72562 c 0,-1.99688 8.84866,-26.47547 14.5166,-40.15812 9.61001,-23.19903 26.84179,-55.45994 40.55915,-75.93389 2.27026,-3.3885 3.99216,-6.29648 3.82644,-6.4622 -0.63723,-0.63724 -25.97781,8.54708 -36.16467,13.10736 -45.22058,20.24359 -86.95092,55.92344 -114.01586,97.48467 -3.25213,4.99403 -6.42565,10.04779 -7.05226,11.23059 l -1.13929,2.15053 h 49.73495 c 43.34197,0 49.73494,-0.18239 49.73494,-1.41894 z m 195.93787,0.88708 c 0,-1.71115 -10.83655,-26.82529 -16.47343,-38.17781 -11.79682,-23.75849 -29.33577,-51.38835 -44.30033,-69.78818 l -2.9482,-3.62498 -9.56688,12.81171 c -16.01405,21.4456 -25.21494,36.35249 -36.96943,59.89627 -5.91827,11.85407 -16.86239,37.09011 -16.86239,38.88299 0,0.29252 28.60215,0.53186 63.56033,0.53186 34.95818,0 63.56033,-0.23934 63.56033,-0.53186 z m 167.13715,-1.61867 c -10.87317,-20.33426 -37.74162,-51.94916 -60.08816,-70.70305 -17.24582,-14.47321 -41.8616,-29.68777 -63.08244,-38.99009 -9.178,-4.02325 -33.49561,-12.68541 -34.05153,-12.12948 -0.16572,0.16572 1.55618,3.0737 3.82644,6.4622 13.9116,20.76384 29.41541,49.62205 39.52006,73.56114 6.245,14.79512 14.33772,36.66525 15.24374,41.19532 l 0.5509,2.75449 h 49.61546 49.61548 z"
     id="path1135"
     transform="scale(0.03)" />
</svg>
