<?xml version="1.0" encoding="UTF-8" standalone="no"?>
<!-- Uploaded to: SVG Repo, www.svgrepo.com, Generator: SVG Repo Mixer Tools -->

<svg
   width="800px"
   height="800px"
   viewBox="0 0 24 24"
   fill="none"
   version="1.1"
   id="svg1149"
   sodipodi:docname="mail-svgrepo-com.svg"
   inkscape:version="1.2.2 (732a01da63, 2022-12-09)"
   xmlns:inkscape="http://www.inkscape.org/namespaces/inkscape"
   xmlns:sodipodi="http://sodipodi.sourceforge.net/DTD/sodipodi-0.dtd"
   xmlns="http://www.w3.org/2000/svg"
   xmlns:svg="http://www.w3.org/2000/svg">
  <defs
     id="defs1153" />
  <sodipodi:namedview
     id="namedview1151"
     pagecolor="#ffffff"
     bordercolor="#000000"
     borderopacity="0.25"
     inkscape:showpageshadow="2"
     inkscape:pageopacity="0.0"
     inkscape:pagecheckerboard="0"
     inkscape:deskcolor="#d1d1d1"
     showgrid="false"
     inkscape:zoom="1.04625"
     inkscape:cx="399.5221"
     inkscape:cy="400.4779"
     inkscape:window-width="1920"
     inkscape:window-height="1017"
     inkscape:window-x="-8"
     inkscape:window-y="-8"
     inkscape:window-maximized="1"
     inkscape:current-layer="svg1149" />
  <path
     d="M3 8C3 7.06812 3 6.60218 3.15224 6.23463C3.35523 5.74458 3.74458 5.35523 4.23463 5.15224C4.60218 5 5.06812 5 6 5V5H18V5C18.9319 5 19.3978 5 19.7654 5.15224C20.2554 5.35523 20.6448 5.74458 20.8478 6.23463C21 6.60218 21 7.06812 21 8V16C21 16.9319 21 17.3978 20.8478 17.7654C20.6448 18.2554 20.2554 18.6448 19.7654 18.8478C19.3978 19 18.9319 19 18 19V19H6V19C5.06812 19 4.60218 19 4.23463 18.8478C3.74458 18.6448 3.35523 18.2554 3.15224 17.7654C3 17.3978 3 16.9319 3 16V8Z"
     stroke="#323232"
     stroke-width="2"
     stroke-linejoin="round"
     id="path1145" />
  <path
     d="M4 6L10.683 11.8476C11.437 12.5074 12.563 12.5074 13.317 11.8476L20 6"
     stroke="#323232"
     stroke-width="2"
     stroke-linecap="round"
     stroke-linejoin="round"
     id="path1147" />
  <path
     style="fill:#70ad47;stroke-width:0.955795"
     d="m 172.52091,665.70087 c -28.47694,-0.99676 -40.90949,-4.07862 -57.35601,-14.21782 -26.148813,-16.12063 -42.407958,-41.06147 -46.491359,-71.31579 -1.899782,-14.07567 -1.899782,-346.25885 0,-360.33452 3.810824,-28.23477 18.529095,-52.23441 41.981439,-68.45499 13.19846,-9.1286 26.57979,-14.0408 44.46245,-16.32191 14.32153,-1.82684 475.44361,-1.82684 489.76513,0 17.82943,2.27432 29.76504,6.61169 43.66143,15.86645 23.74358,15.81283 38.91391,40.24795 42.78247,68.91045 1.89979,14.07567 1.89979,346.25885 0,360.33452 -3.86856,28.6625 -19.03889,53.09762 -42.78247,68.91045 -13.19714,8.78907 -25.20443,13.3084 -41.94901,15.78883 -8.7826,1.301 -439.10479,2.05832 -474.07407,0.83433 z M 633.02836,599.7978 c 13.03686,-1.0095 17.8563,-2.84244 24.22853,-9.21466 5.76838,-5.76838 7.94256,-10.6673 9.0027,-20.2852 0.55505,-5.03551 0.81438,-70.81061 0.66047,-167.52128 l -0.25339,-159.23051 -100.83632,88.32618 c -55.45998,48.57941 -103.84708,90.48754 -107.52689,93.12917 -34.30718,24.62823 -78.68538,25.38775 -113.98395,1.95081 -2.86314,-1.90102 -51.50631,-43.97154 -108.09594,-93.49005 l -102.89024,-90.03365 -0.25339,159.28928 c -0.15391,96.74803 0.10541,162.54446 0.66047,167.58005 1.06015,9.6179 3.23431,14.51682 9.0027,20.2852 6.09692,6.09693 11.55508,8.32416 22.42594,9.15103 13.65715,1.03883 454.49128,1.09878 467.85931,0.0637 z M 410.26251,376.93198 c 1.96457,-0.49165 6.14831,-2.70678 9.29719,-4.9225 3.1489,-2.21573 48.93253,-41.87806 101.74142,-88.13851 l 96.01618,-84.10992 -108.97417,-0.243 c -59.93579,-0.13366 -157.6975,-0.13366 -217.24824,0 l -108.27408,0.243 98.30542,86.02151 c 54.06799,47.31182 100.36999,87.19485 102.89334,88.62896 7.31421,4.15687 16.2678,5.01681 26.24294,2.52046 z"
     id="path1155"
     transform="scale(0.03)" />
</svg>
