<?xml version="1.0" encoding="UTF-8" standalone="no"?>
<!-- Uploaded to: SVG Repo, www.svgrepo.com, Generator: SVG Repo Mixer Tools -->

<svg
   width="800px"
   height="800px"
   viewBox="0 0 24 24"
   fill="none"
   version="1.1"
   id="svg1099"
   sodipodi:docname="storage-svgrepo-com.svg"
   inkscape:version="1.2.2 (732a01da63, 2022-12-09)"
   xmlns:inkscape="http://www.inkscape.org/namespaces/inkscape"
   xmlns:sodipodi="http://sodipodi.sourceforge.net/DTD/sodipodi-0.dtd"
   xmlns="http://www.w3.org/2000/svg"
   xmlns:svg="http://www.w3.org/2000/svg">
  <defs
     id="defs1103" />
  <sodipodi:namedview
     id="namedview1101"
     pagecolor="#ffffff"
     bordercolor="#000000"
     borderopacity="0.25"
     inkscape:showpageshadow="2"
     inkscape:pageopacity="0.0"
     inkscape:pagecheckerboard="0"
     inkscape:deskcolor="#d1d1d1"
     showgrid="false"
     inkscape:zoom="1.04625"
     inkscape:cx="399.5221"
     inkscape:cy="400.4779"
     inkscape:window-width="1920"
     inkscape:window-height="1017"
     inkscape:window-x="-8"
     inkscape:window-y="-8"
     inkscape:window-maximized="1"
     inkscape:current-layer="svg1099" />
  <path
     d="M5 9V5C5 3.89543 5.89543 3 7 3H17C18.1046 3 19 3.89543 19 5V9M5 9H19M5 9V15M19 9V15M19 15V19C19 20.1046 18.1046 21 17 21H7C5.89543 21 5 20.1046 5 19V15M19 15H5M8 12H8.01M8 6H8.01M8 18H8.01"
     stroke="#000000"
     stroke-width="2"
     stroke-linecap="round"
     stroke-linejoin="round"
     id="path1097" />
  <path
     style="fill:#70ad47;stroke-width:0.955795"
     d="m 219.35484,731.93961 c -13.00653,-1.84778 -29.34825,-8.19721 -40.85855,-15.87523 -23.10995,-15.41563 -38.83525,-39.78993 -43.27721,-67.07991 -1.20317,-7.39192 -1.40016,-42.4216 -1.40016,-248.98447 0,-260.48093 -0.22624,-248.7226 5.08477,-264.27718 11.06813,-32.4157 36.0777,-55.931304 69.45951,-65.310275 l 9.08005,-2.551135 H 400 582.55675 l 9.08005,2.551135 c 11.70783,3.28944 20.53239,7.298857 30.15183,13.699405 22.7812,15.158086 38.56865,39.72615 42.99229,66.90358 2.10623,12.94 2.10623,485.02894 0,497.96894 -6.36408,39.09888 -34.03283,69.4065 -73.91826,80.96812 l -7.35012,2.13058 -180.64516,0.1319 c -99.35484,0.0725 -181.93548,-0.0514 -183.51254,-0.27546 z m 362.5177,-68.41192 c 6.73816,-3.55025 12.27402,-9.25837 15.35761,-15.83549 l 2.5309,-5.39829 0.26168,-54.71924 0.26168,-54.71923 H 400 199.71559 l 0.26168,54.71923 0.26168,54.71924 2.53091,5.39829 c 3.9454,8.41533 11.93509,15.33384 20.88605,18.08585 1.31422,0.40407 81.31422,0.66178 177.77778,0.57269 l 175.38829,-0.16197 z M 600.23895,400 V 333.09438 H 400 199.76105 V 400 466.90562 H 400 600.23895 Z m -0.21622,-187.57467 -0.26168,-54.71924 -2.5309,-5.39829 c -3.2848,-7.0063 -9.06549,-12.70261 -16.42304,-16.18333 l -5.89672,-2.78963 H 400 225.08961 l -5.89672,2.78963 c -7.35756,3.48072 -13.13824,9.17703 -16.42303,16.18333 l -2.53091,5.39829 -0.26168,54.71924 -0.26168,54.71923 H 400 600.28441 Z"
     id="path1105"
     transform="scale(0.03)" />
  <path
     style="fill:#70ad47;stroke-width:0.955795"
     d="m 256.15808,430.90275 c -14.20046,-4.96828 -22.78169,-18.03532 -21.77008,-33.15029 0.56703,-8.47222 3.42819,-14.84116 9.30908,-20.72205 6.18575,-6.18575 12.21425,-8.78796 21.53589,-9.296 6.2043,-0.33814 8.67413,-0.0291 13.09595,1.63889 7.52581,2.83878 14.31284,9.19939 18.16453,17.02328 2.69587,5.47611 3.12297,7.33652 3.12297,13.60342 0,6.2669 -0.4271,8.12731 -3.12297,13.60342 -3.81813,7.75572 -10.64923,14.19478 -17.96144,16.93063 -6.3537,2.37722 -16.17074,2.539 -22.37393,0.3687 z"
     id="path1107"
     transform="scale(0.03)" />
  <path
     style="fill:#70ad47;stroke-width:0.955795"
     d="m 256.43951,231.01346 c -13.53504,-4.83279 -21.29768,-15.16232 -22.04964,-29.34082 -0.50785,-9.57567 1.82671,-16.45562 7.86141,-23.16767 17.89348,-19.90185 49.84497,-12.01733 56.47512,13.93611 3.7063,14.50815 -3.0739,29.09623 -16.96421,36.49969 -7.61357,4.05799 -17.49689,4.86695 -25.32268,2.07269 z"
     id="path1109"
     transform="scale(0.03)" />
  <path
     style="fill:#70ad47;stroke-width:0.955795"
     d="m 259.38686,631.90466 c -10.52213,-2.64 -19.63837,-10.651 -23.3664,-20.53348 -2.8709,-7.61036 -2.28827,-18.60582 1.36396,-25.74074 3.42157,-6.68432 9.13448,-12.25146 15.7597,-15.3576 4.58584,-2.15 6.69294,-2.5309 14.00044,-2.5309 7.97013,0 9.04234,0.2387 14.5934,3.24884 17.33884,9.40224 23.17846,30.04829 13.0411,46.10692 -7.40305,11.72719 -22.49751,18.04223 -35.3922,14.80696 z"
     id="path1111"
     transform="scale(0.03)" />
</svg>
