<?xml version="1.0" encoding="UTF-8" standalone="no"?>
<!-- Uploaded to: SVG Repo, www.svgrepo.com, Generator: SVG Repo Mixer Tools -->

<svg
   width="800px"
   height="800px"
   viewBox="0 0 1024 1024"
   class="icon"
   version="1.1"
   id="svg1012"
   sodipodi:docname="system-settings-backup-svgrepo-com.svg"
   inkscape:version="1.2.2 (732a01da63, 2022-12-09)"
   xmlns:inkscape="http://www.inkscape.org/namespaces/inkscape"
   xmlns:sodipodi="http://sodipodi.sourceforge.net/DTD/sodipodi-0.dtd"
   xmlns="http://www.w3.org/2000/svg"
   xmlns:svg="http://www.w3.org/2000/svg">
  <defs
     id="defs1016" />
  <sodipodi:namedview
     id="namedview1014"
     pagecolor="#ffffff"
     bordercolor="#000000"
     borderopacity="0.25"
     inkscape:showpageshadow="2"
     inkscape:pageopacity="0.0"
     inkscape:pagecheckerboard="0"
     inkscape:deskcolor="#d1d1d1"
     showgrid="false"
     inkscape:zoom="1.04625"
     inkscape:cx="399.5221"
     inkscape:cy="400.4779"
     inkscape:window-width="1920"
     inkscape:window-height="1017"
     inkscape:window-x="-8"
     inkscape:window-y="-8"
     inkscape:window-maximized="1"
     inkscape:current-layer="svg1012" />
  <path
     d="M772.672 575.808V448.192l70.848-70.848a370.688 370.688 0 0 0-56.512-97.664l-96.64 25.92-110.528-63.808-25.92-96.768a374.72 374.72 0 0 0-112.832 0l-25.92 96.768-110.528 63.808-96.64-25.92c-23.68 29.44-42.816 62.4-56.576 97.664l70.848 70.848v127.616l-70.848 70.848c13.76 35.264 32.832 68.16 56.576 97.664l96.64-25.92 110.528 63.808 25.92 96.768a374.72 374.72 0 0 0 112.832 0l25.92-96.768 110.528-63.808 96.64 25.92c23.68-29.44 42.816-62.4 56.512-97.664l-70.848-70.848z m39.744 254.848l-111.232-29.824-55.424 32-29.824 111.36c-37.76 10.24-77.44 15.808-118.4 15.808-41.024 0-80.768-5.504-118.464-15.808l-29.888-111.36-55.424-32-111.168 29.824A447.552 447.552 0 0 1 64 625.472L145.472 544v-64L64 398.528A447.552 447.552 0 0 1 182.592 193.28l111.168 29.824 55.424-32 29.888-111.36A448.512 448.512 0 0 1 497.472 64c41.024 0 80.768 5.504 118.464 15.808l29.824 111.36 55.424 32 111.232-29.824c56.32 55.68 97.92 126.144 118.592 205.184L849.472 480v64l81.536 81.472a447.552 447.552 0 0 1-118.592 205.184zM497.536 627.2a115.2 115.2 0 1 0 0-230.4 115.2 115.2 0 0 0 0 230.4z m0 76.8a192 192 0 1 1 0-384 192 192 0 0 1 0 384z"
     fill="#000000"
     id="path1010" />
  <path
     style="fill:#70ad47;stroke-width:0.955795"
     d="m 372.75986,749.26292 c -2.36559,-0.20155 -9.67742,-0.82331 -16.24851,-1.38169 -15.01091,-1.27555 -32.35105,-4.0772 -47.87208,-7.73471 l -12.02978,-2.83479 -11.29397,-42.25204 c -6.21169,-23.23862 -11.63779,-42.93773 -12.05798,-43.77579 -0.87401,-1.74317 -41.98655,-25.7164 -44.10197,-25.7164 -1.12801,0 -79.24483,20.68832 -84.92978,22.49265 -3.08365,0.97871 -30.07002,-30.464 -44.735053,-52.12228 C 79.472164,566.37313 62.94679,531.52033 53.529986,499.00446 L 50.508231,488.57047 82.123888,456.94424 113.73955,425.31801 V 400 374.68199 L 82.123888,343.05576 50.508231,311.42953 53.529986,300.99554 c 9.049648,-31.2481 25.548083,-66.47812 44.275493,-94.54393 14.812171,-22.19824 43.142201,-55.53699 46.353041,-54.54822 6.1096,1.88143 84.03435,22.52911 85.02531,22.52911 2.01311,0 43.25164,-24.07379 44.07368,-25.72886 0.41285,-0.83121 5.83089,-20.52167 12.04011,-43.75659 l 11.2895,-42.245297 10.23822,-2.44806 c 28.35982,-6.781116 51.05059,-9.419575 81.22723,-9.445016 24.08937,-0.02031 37.41531,1.035695 59.11071,4.684179 12.24024,2.058423 32.48148,6.629003 33.39273,7.540257 0.19069,0.190682 5.51328,19.634626 11.82797,43.208767 6.3147,23.57413 11.7675,43.1472 12.11734,43.49572 1.8802,1.87306 42.46982,24.691 43.88387,24.66985 0.92101,-0.0138 20.59928,-5.15674 43.72951,-11.4288 l 42.05495,-11.40374 9.38078,9.75615 c 35.44551,36.86387 65.54134,89.10541 80.11082,139.05953 l 3.14548,10.78484 -31.74267,31.75328 -31.74267,31.75328 V 400 425.31801 l 31.73181,31.74242 31.73182,31.74243 -2.67354,9.36201 c -11.06922,38.76151 -32.04731,80.02466 -57.96824,114.02151 -7.839,10.28131 -24.54487,29.44952 -29.69104,34.0673 l -2.28255,2.04819 -42.05495,-11.34214 c -23.13023,-6.23816 -42.8085,-11.3534 -43.72951,-11.36718 -1.41449,-0.0211 -42.00737,22.79901 -43.88311,24.66985 -0.34942,0.34852 -5.63595,19.34333 -11.74783,42.21072 -6.1119,22.86738 -11.32836,42.29665 -11.59214,43.17614 -0.8238,2.7467 -30.03436,9.0086 -54.73028,11.73261 -13.22161,1.45837 -45.3975,2.58604 -53.67197,1.88105 z m 49.95059,-60.71675 10.28512,-1.17099 1.27221,-4.38054 c 0.69971,-2.4093 5.2943,-19.47501 10.21021,-37.92381 l 8.93802,-33.54326 42.96644,-24.7602 c 23.63154,-13.61811 43.22584,-24.71481 43.54289,-24.65933 0.31705,0.0554 17.30081,4.55493 37.7417,9.99876 l 37.16524,9.89787 3.24865,-3.78609 c 10.61172,-12.36729 29.50578,-44.47647 38.1313,-64.80157 l 3.58463,-8.44677 -27.86736,-27.87939 -27.86737,-27.87938 V 400 350.78853 l 27.86737,-27.87938 27.86736,-27.87939 -3.59575,-8.44677 c -5.24341,-12.31726 -13.97739,-28.9823 -21.33188,-40.70275 -7.66124,-12.20927 -18.08263,-26.47061 -19.8345,-27.14285 -0.6887,-0.26429 -17.31025,3.81882 -36.93677,9.07356 -19.62651,5.25475 -36.3836,9.69534 -37.23796,9.86799 -0.85435,0.17263 -20.87876,-10.8282 -44.49868,-24.44631 l -42.94531,-24.7602 -8.93802,-33.54326 c -4.91591,-18.4488 -9.51425,-35.52716 -10.21856,-37.95191 l -1.28054,-4.40864 -12.18837,-1.32613 c -15.50755,-1.68726 -49.90868,-1.68376 -64.59434,0.007 -9.94166,1.14429 -11.41364,1.5463 -12.19171,3.32964 -0.4867,1.11553 -5.18857,18.12641 -10.4486,37.80195 -5.26003,19.67556 -9.72232,35.93235 -9.91619,36.12623 -0.19387,0.19386 -19.56639,11.44475 -43.05005,25.00195 l -42.69756,24.64948 -36.84612,-9.87963 c -20.26538,-5.43383 -37.41484,-9.87967 -38.10991,-9.87967 -1.55486,0 -13.13868,15.61552 -21.41869,28.87337 -7.21723,11.55614 -15.4502,27.41603 -20.46286,39.4194 l -3.57286,8.55561 27.75859,27.77056 27.75859,27.77055 V 400 449.21147 l -27.75859,27.77055 -27.75859,27.77056 3.57286,8.55561 c 5.01266,12.00337 13.24563,27.86326 20.46286,39.4194 8.28001,13.25785 19.86383,28.87337 21.41869,28.87337 0.69507,0 17.84453,-4.44584 38.10991,-9.87964 l 36.84612,-9.87963 42.69756,24.64947 c 23.48366,13.55721 42.85618,24.8081 43.05005,25.00196 0.19387,0.19388 4.65616,16.45067 9.91619,36.12623 5.26003,19.67554 9.9619,36.68642 10.4486,37.80195 0.91901,2.10638 0.35801,2.00898 26.3659,4.57784 7.06546,0.69787 41.95574,-0.27069 52.34008,-1.45297 z"
     id="path1087"
     transform="scale(1.28)" />
  <path
     style="fill:#70ad47;stroke-width:0.955795"
     d="m 370.37037,548.49953 c -58.40969,-8.66375 -104.93658,-46.71552 -123.1405,-100.7098 -10.60971,-31.46924 -10.66108,-63.59523 -0.1523,-95.23945 14.7897,-44.53502 51.27968,-80.53164 96.05266,-94.75396 17.68671,-5.61826 23.43166,-6.41904 45.87813,-6.39489 22.21331,0.0239 29.894,1.12583 46.53072,6.67562 73.86311,24.63977 116.53345,101.68171 98.21603,177.33054 -13.37807,55.24989 -57.76148,98.2812 -114.4535,110.9668 -6.84031,1.53061 -12.91839,2.03112 -27.42586,2.25843 -10.2509,0.16061 -19.92832,0.10063 -21.50538,-0.13329 z m 38.23178,-60.26805 c 31.97218,-7.14103 57.22539,-30.89878 67.06909,-63.09734 2.36597,-7.73902 2.57229,-9.73809 2.59413,-25.13414 0.0221,-15.59514 -0.15503,-17.3082 -2.61936,-25.32855 -13.06083,-42.50767 -53.7978,-69.63259 -96.85988,-64.49466 -40.72786,4.85942 -72.19091,34.43033 -79.17843,74.41675 -9.93343,56.84451 35.75319,108.59895 93.22384,105.60527 4.99403,-0.26013 12.0908,-1.14543 15.77061,-1.96733 z"
     id="path1089"
     transform="scale(1.28)" />
</svg>
